<?xml version="1.0" encoding="utf-8"?>
<!-- Generator: Adobe Illustrator 20.1.0, SVG Export Plug-In . SVG Version: 6.00 Build 0)  -->
<svg version="1.0" id="Layer_1" xmlns="http://www.w3.org/2000/svg" xmlns:xlink="http://www.w3.org/1999/xlink" x="0px" y="0px"
	 width="1400px" height="980px" viewBox="0 0 1400 980" enable-background="new 0 0 1400 980" xml:space="preserve">
<rect fill="#FFD5BB" width="1400" height="980"/>
<path fill="#662700" d="M1294.6,899.2c-3.5-1.2-6-1.3-8-1.9c-4.3-1.3,1.2-2.7-9.5-2.9c-5.7-0.1-10.2-2.3-10.2-2.3s-2.2-5.7-2.7-7.2
	c-0.5-1.5,7.4-1.2,8.1-0.5c0.7,0.7,2.9,3.6,3.9,2c0.9-1.4,1.5-1.2,1.5-1.2c1.7-0.9,10.1,0.5,14.6-0.5c0,0,0.4-2-2.3-3
	c-2.7-1-9.9-2.5-13.6-3.2c-3.7-0.7-14.4-3.9-15.2-3.9c-0.7,0-7.7-30.4-7.7-30.4s3.7-14.3,6.4-17.8c2.7-3.5,7.4-6.9,2.5-18.1
	c-4.9-11.2-14.1-25.1-14.1-26.3s1.2-15.8-3.3-15.3c-2,0.2-1,0.1-0.9-1.9c0.3-4.7-1.4-9.2-0.5-10.3c0.2-0.3,0.5-0.6,0.7-0.8
	c3.3-0.3,13.9-4.2,13.1-8.1c0,0-1-2.3-2.2-2.8c0,0,0.9-2.9,0.2-3.4c-0.7-0.4-1.6-0.8-1.8-0.7c-0.2,0.1,1.2-2,0.9-2.5
	c-0.2-0.4-1.7-2.1-1-3.2c0.7-1,2.2-3.1,2-3.7c-0.2-0.6-0.5-1.4-2.5-2.1c-2-0.7-6-2.4-6-5.5c0,0,0.1-1-2.1-3.9
	c-2.2-2.8-9.7-8.6-13-9.7c-2-0.7-4.9-0.9-7.7-0.5c-0.4,0-0.7,0-0.9,0.2c0,0,0,0,0,0c-1.1,0.2-2.1,0.6-3.1,1
	c-7,2.1-20.8,7.5-23.2,19.1c-0.1,0.7-0.4,2.1-0.7,3.9c-5,0.2-9,6.3-9,13.8c0,7.6,4.1,13.8,9.2,13.8c1.8,0,3.5-0.8,5-2.2
	c5.8,2,12.5-3.1,15.4,9.1c0.6,2.4-1.7,13.6-1.7,16.8c0,3.2,1.5,3.9,2.2,11.1c0.7,7.2,1,19.3-0.7,26.7c-1.7,7.4-1.7,16.3-5.7,17.5
	c-3.9,1.2-14.1-1.5-21,2.7s-21,13.3-24.2,14.1s-19.3,2.2-23.7,3.7c-4.4,1.5-17.8,3-20.5,2.2c-2.7-0.7-23.5-8.4-26.9-7.9
	c-3.5,0.5-15.8-1.2-23.2,1.2c-7.4,2.5-14.1,3.2-19.7,3.5c-5.7,0.2-10.6-0.5-13.3-1.7c-2.7-1.2-5.4-6.7-10.1-2.5
	c-4.7,4.2-7.9,9.1-11.1,9.1c-3.2,0-17.5,4.9-18.3,6.2c-0.7,1.2,0.7,3.2,0,4.7c-0.7,1.5-11.6,8.1-15.6,10.1c-3.9,2-4.7,3.2-7.4,5.4
	c-2.7,2.2,4.9,5.2,10.9,2.5c5.9-2.7,14.3-1.5,17.8-1c3.5,0.5,20,0.7,25.9-2.5c5.9-3.2,13.8-3.5,18.5-3.2c4.7,0.2,32.3,5.9,40.7,3.5
	c0,0,6.9,2.9,20.7,4.3c13.8,1.4,69.6,3.9,75.8,2.6c6.2-1.2,18.5-4.2,28.6-10.1c10.1-5.9,28.9-22,28.9-22s4.7,20.7,6.2,23
	c1.5,2.2,3.9,10.4,7.7,12.8c3.7,2.5,4.2,3.5,15.1,4.2c10.9,0.7,19.1-0.6,20.9-0.6S1298.1,900.4,1294.6,899.2z"/>
<path fill="#662700" d="M376.2,886.6c-3-2.7-11.1-5.4-11.4-5.7c-0.2-0.2-6.4-5.9-6.4-5.9s-3.5-35.5-5.2-39.7
	c-1.7-4.2,3.7-15.6,4.2-23.5c0.5-7.9-2.7-17-7.2-18c-4.4-1-3.9-8.4-2.5-11.8c1.5-3.5,1.5-14.6-1-19.3c-2.5-4.7-8.1-7.9-8.1-7.9
	s4.2-5.4,4.9-5.9c0.7-0.5,4.2-2,6.7-8.1c2.5-6.2,3.7-11.8,3.5-19.3c-0.2-7.4-7.7-20.5-12.8-22c-5.2-1.5-17.3,1.7-20.7,7.2
	c-1.1,1.8-2.5,4.1-3.7,6.5c-0.7-0.1-1.4-0.1-2.1,0c-4.4,0.9-6.9,7-5.6,13.6c1.3,6.6,5.9,11.2,10.3,10.4c1,2.2,2,5.3,1.7,8.8
	c0,0-3.9,4.3-11.5,5.9c-7.6,1.6-14.2,3.3-18.1,12.5c-3.9,9.2-15.8,22.1-17.4,23.4s-25.7,22.7-27,27.3c-1.3,4.6-8.6,11.8-12.2,18.8
	c-3.6,6.9-20.4,22.4-23.4,23.4c-3,1-10.5,1.3-15.8,0c-5.3-1.3-14.8-2.6-21.1-2c-6.3,0.7-14.5,1.3-16.1-0.3c-1.6-1.6-1-6.9-4.3-6.3
	c-3.3,0.7-9.5,5.8-14.4,7.7c-4.9,2-10.4,4.4-11.1,4.9c-0.7,0.5-4.4,1.5-4.4,1.5s0.5,4.2,3.2,4.2c2.7,0,11.1-2,14.6-1.5
	c3.5,0.5,9.9,2.2,13.6,1.5c3.7-0.7,33.3,9.4,34.3,9.4c1,0,11.6,8.6,24.2,3.7c12.6-4.9,36.5-19.7,42.2-23
	c5.7-3.2,23.7-12.8,25.4-12.8s13.6-0.5,13.6-0.5s-0.2,41.4,1.4,44.7c0,0-3.3,20.4-2.3,20.7c1,0.3,5.6-1.6,5.6-1.6s4.3-0.6,4.6,1.7
	s5.6,0,5.6,0s1.6,2.6,3,2.6s4.3-1.6,4.3-1.6s6.9-0.7,3.6-4.6c-3.3-3.9-5.8-6.4-5.8-6.4s3.8,1.3,4.4,0.5c0.7-0.8-3.9-6-6.2-8.7
	c-2.2-2.7-4.2-4.2-4.7-17.8c-0.5-13.6,0.7-25.4,0-32.8c0,0,14.3-8.3,17.8-11.4c0,0-2.5,14.9-2.5,23.8c0,8.9-3.2,19-3.2,19
	s-3.5,13.1-2.7,15.6c0.7,2.5,7.2,3.5,8.4,3c1.2-0.5,8.1,0.2,9.9,1s17,4.9,18.3,4.9c1.2,0,5.7,0.7,6.2-1.2c0.5-2-3.2-3.7-4.7-5.4
	c-1.5-1.7-5.2-4.4-5.2-4.4s8.2,1.2,9.9,2.7c1.7,1.5,6.6,3.5,6.6,3.5l8.9-0.5C376.2,890.8,379.2,889.3,376.2,886.6z M349.3,873.6
	c-0.8,0.8-1.6,4.2-2.3,6.4c-0.2,0.7-0.9,1.2-1.6,1.3c-0.7,0-1.6,0-2-0.1c-0.6-0.1-4.8-3.5-7-5.2c-0.8-0.6-1-1.6-0.7-2.6l7.7-22.6
	c0-0.1,0.1-0.1,0.1-0.2c0,0,1.1-3.2,2.1-3.2c0.6,0,2.6,15.7,2.6,15.7c0.1,0.4,0.1,0.8,0.1,1.2C348.1,866.3,350.1,872.7,349.3,873.6z
	"/>
<path fill="#662700" d="M795.2,568.1c-5.4-7.7-34.3-23.7-40.2-26.2c-5.9-2.5-26.7-4.7-29.1-4.7c-2.5,0-2.7-46-3-47
	c-0.3-1-3.2-21.2-18.1-28.1c-16.2-7.5-15-29.7-12-38.2c3.4-0.4,10.9-1.6,10.2-5.3c0,0-1-2.3-2.2-2.8c0,0,0.9-2.9,0.2-3.4
	c-0.7-0.4-1.6-0.8-1.8-0.7c-0.2,0.1,1.2-2,0.9-2.5c-0.2-0.4-1.7-2.1-1-3.2c0.7-1,2.2-3.1,2-3.7c-0.2-0.6-0.5-1.4-2.5-2.1
	c-2-0.7-6-2.4-6-5.5c0,0,0.1-1-2.1-3.9c-2.2-2.8-9.7-8.6-13-9.7c-3.3-1.1-8.8-1-12.5,1.1c-0.8,0.5-1.4,0.8-2,1.2
	c-4.4,1.8-14.9,6.8-19.3,20c-0.3,0.1-0.6,0.3-0.9,0.5c-4.3,2.8-4.5,10.3-0.3,16.8c4.2,6.5,11,9.5,15.3,6.7c0.8-0.5,1.4-1.1,1.9-1.9
	c0.6,0.2,1.2,0.4,1.8,0.7c8.2,3.9,8.9,6.6,9.6,9.3c0.7,2.6-3,22.7-1.6,29.3c1.3,6.6,3.8,41.5,3.8,51.3c0,9.9-1.6,18.8-1.6,23.7
	c0,3.9,0.6,24,0.9,32.1c0.1,2.2-0.8,4.2-2.5,5.7c-3.5,3.1-9.6,8.8-10.6,11.8c-1.5,4.2-2.7,6.2-0.5,6.9c2.2,0.7,5.3,2.1,5.3,4.1
	c0,2,0.5,5.9,6.3,4.4c5.8-1.5,7.2-5.5,10.4-5.8c3.2-0.2,25,3.1,26.5,3.1c1.5,0,72.1,0.5,74.1-1c2-1.5,11.4-4.2,13.8-10.9
	C797.7,583.6,800.7,575.7,795.2,568.1z"/>
<path fill="#662700" d="M1259.9,79c-0.9-2-1.3-3.9-1.5-5.3c-0.2-1.2-1.6-1.9-2.7-1.2c-1.4,0.9-3.1,2.4-3.4,4.5
	c-0.7,4.1-2.6,8.6-3.9,9.5c-1.3,1-17.4,24-17.1,28.8c0.3,4.8-22.4,30.4-27.3,35.7c-4.9,5.3-28,23-28,23s-20.4-1.6-24.4-1.6
	s-22.7-4.4-30-3.2c-7.2,1.2-29.1,1.2-32.1,0c-3-1.2-8.9-5.6-12.1-6.4c-3.2-0.7-14.3-1.2-17.3-1.2c-3,0-6.3-5.7-6.1-8.1
	c0,0,12.6,0.3,12.9-2.4c0,0-0.2-2-1-2.9c0-0.1,0-0.3,0.1-0.4c0.4-0.6,1.3-2.1,0.9-2.6c-0.3-0.4-0.7-0.7-1-0.9c0-0.2-0.1-0.3-0.1-0.5
	c0.4-0.4,1.3-1.2,1.2-1.6c-0.1-0.4-0.9-2.3,0-3c0.9-0.7,2.7-2,2.7-2.6c0-0.6,0-1.3-1.5-2.5c-1.5-1.2-4.4-3.7-3.6-6.4
	c0,0,0.4-0.9-0.7-3.9c-1.1-3-5.9-10-8.4-11.9c-2.5-1.9-9.6-6.1-13.3-5.4c-0.8,0.2-1.4,0.3-1.9,0.4c-9.3-0.2-18.2,4.8-19.7,10
	c-0.8,2.6-1.9,5.1-2.9,7.6c-0.8,0.1-1.5,0.2-2.2,0.6c-4.8,2.2-6,9.8-2.7,16.9c3.3,7.2,9.8,11.2,14.6,9c0.6-0.3,1.2-0.7,1.7-1.1
	c0.7,0.7,4.3,4.6,5.1,7.1c1,2.8,0,12.8-0.2,14.6c-0.2,1.8-5.9,11.8-2.1,18.6c3.8,6.7,11.2,15.8,23.5,23.5
	c12.3,7.7,22.2,18.4,26.8,25.3c4.6,6.9,17.9,23.6,24.1,25.6c6.2,2,23,4.2,28.6,0c5.7-4.2,11.4-13.4,23-31.2
	c11.5-17.8,27-37.2,33.6-41.8c6.6-4.6,31.8-21.7,34.8-33.9c1-4.2,12.6-25,16.2-28c3.6-3,6.9-5.3,8.9-6.1c2-0.8,7.7-3.9,6.7-8.6
	c-1-4.7-3-10.1-3-16.3c0-6.2,4.4-12.8,4.4-13.8C1259.9,84.2,1261.6,83,1259.9,79z M1146,195.3c-1.2,1.2-19.9,18.2-22.3,18.2
	c-0.4,0-13.6-11-19.8-16.3c-1.1-0.9-0.4-2.6,1-2.5c10.1,0.4,32.6,1.1,35.9-0.3C1145,192.7,1147.2,194.1,1146,195.3z"/>
<path fill="#662700" d="M359.7,246.1c-7.6-1.5-6.9-5.4-6.9-5.4c1.4,1.3,16.1,2.2,7.3-4.6c-4.9-3.8-17.8-8.6-22.8-11.6
	c-4.4-2.7-2.8-41.9-3.1-50.3c0-1,0.1-1.9,0.4-2.8c1.4-4.2,5.2-17.6,2.4-24.5c-1.8-4.4-49-5.6-57.3-2.6c-8.2,3-17.4,6.9-21.1,6.9
	c-3.6,0-27.3-3-27.3-3s-10.7,2.1-16.1-1c-2.8-1.6-12.2-4.9-13.8-8.2c-1.6-3.3-7.9-7.6-16.1-7.6s-12.8-2.3-12.8-2.3l-3.5-4.9
	c0,0,3.2-5.7,2.7-7.9c-0.5-2.2,1.8-5.9,0.1-12.3c-1.8-6.4-0.3-8.9-2.8-12.8c-2.5-3.9-19-12.3-26.2-2.7c-5.1,6.9-6.1,12.7-6,16.1
	c-0.9,0-1.8,0.1-2.7,0.5c-4.1,1.9-5.1,8.4-2.3,14.6c2.8,6.2,8.5,9.7,12.6,7.8c0.3-0.2,0.6-0.3,0.9-0.6c2.3,1.6,4.9,2.9,4.9,5.1
	c0,2.7-1.7,6.6-2.5,13.8c-0.5,4.3,1.5,13.6-0.2,22c-1.7,8.4-4.4,18.8-3.5,22c1,3.2-4.2,25.2-4.2,27.9c0,2.7,0.5,27.6,0.5,27.6
	s0,5.2,8.9,6.4c8.9,1.2,11.6,1.5,13.7,1.5c5.3-0.1,7.8-1.7,9.9-2c2-0.2,6.2-1.4,5.9-2.2c-0.9-2.6-8.7-2.3-10.2-3
	c-1.5-0.7-2.6-1.1-4.2-2.1c-1.6-1-8.4-2.5-11.8-3.3c-3.2-0.8-2.6-3.2-1.8-5.3c0.3-0.7,3.1,1.8,7.5,2.3c4.4,0.5,11.9,0.3,13.3-0.2
	c1.3-0.5,4.2-0.3,4.7-0.3c0.5,0,5.5-1.6,6.2-1.6c0.7,0-1.3-5.1-4.9-5.6c-3.6-0.5-17.4-0.2-19.3-1.8c-1-0.9-3.5-23.5-1.5-30.8
	c2-7.2,7.9-28.6,7.9-31.6c0-3,20.7,12.2,23.4,12.2c2.6,0,36.2,5.3,38.5,4.9c2.3-0.3,15.1,12.2,24.7,9.9c9.5-2.3,22.7-6.6,26.3-7.6
	c3.6-1,33.9-7.6,35.5-11.5c0,0,0.5,19.3,4.4,29c3,7.2,2,16.1,2.6,20.4c0.7,4.3-5.4,13.8-1.8,15.8c3.6,2,5.3,1.3,5.3,4.3
	c0,3-2.3,12.8,5.3,12.5c7.6-0.3,25.8-1.3,28.8-0.7c3,0.7,13.8-0.8,13.7-2.1C370.7,248.6,363.7,246.9,359.7,246.1z"/>
<path fill="#662700" d="M861.8,233.3c-1-14.5,0.6-25.6,0.9-28.5c0.3-3-1.2-6.1-3.9-5.6c-3.3,0.6-4.1,6.1-5.3,3.6
	c-1.2-2.5,2.3-14-2.1-12.5c-4.4,1.5-6.3,4.9-6.7,10.5c-0.5,5.6-4.8,22.1-10.7,24c-5.9,2-37.7-0.3-45.3-0.7
	c-7.6-0.3-21.4-2.3-25.3-2.6c-3.9-0.3-65.8-13.5-75-14.5c-9.2-1-6.6-7.6-4.9-12.2c1.6-4.6-1.6-26.7-2.6-29.3
	c-1-2.6-5.3-15.8-5.6-18.4c-0.3-2.6,0.3-6.9-9.2-10.9c-9.5-3.9-29.7-12.7-34.6-16.9c-4.7-4-4.9-7.4-4.7-11c0-0.4,0.2-0.7,0.5-1
	c1.8-1.6,8.3-7.9,5.3-10.5c0,0-1.3-0.7-2.5-0.9c-0.5-0.1-1-0.4-1.2-0.9c-0.4-0.8-0.9-1.7-1.4-1.7c-0.8,0.1-1.7,0.4-1.8,0.5
	c-0.1,0.1-0.3-2.2-0.7-2.4c-0.4-0.2-2.5-0.6-2.6-1.8c0-1.2-0.1-3.5-0.6-3.9c-0.5-0.4-1.2-0.7-3.1-0.2c-1.9,0.6-5.9,1.6-7.7-0.6
	c0,0-0.5-0.8-3.8-1.7c-3.2-0.9-12.2-0.8-15.3,0.2c-1.8,0.6-11.3,8.2-13.3,15.7c-1.8,6.5-2.5,13.6-0.9,19.4
	c-0.8,3.2-0.4,7.4,1.5,11.4c3.3,7.2,9.8,11.2,14.6,9c3.1-1.4,4.7-5.1,4.5-9.5c6.9-0.5,12.5-1.5,15.3,5.6c0.3,0.7,0.2,1.4-0.3,1.9
	c-2.5,2.4-9.7,10-9.7,17.3c0,8.9-13.8,32.6-14.8,34.9c-1,2.3-5.9,19.4-7.9,24.7c-2,5.3-6.3,26.3-5.9,30.9c0.3,4.6,4.6,9.9,7.2,10.5
	c2.4,0.6,19.9,1.2,23.4,1.3c0.4,0,0.7-0.1,1-0.3c0.8-0.6,2.6-1.9,4.9-1.9c3,0,8.9-1.6,5.3-3.3c-3.6-1.6-21.4-3.9-25.3-3.6
	c-3.9,0.3-7.6-4-6.3-6.3c0.4-0.6,0.8-1.4,1.2-2.2c0.6-1.2,2.3-1.3,2.8-0.1c0.5,1,1.4,1.9,2.9,2c4.3,0.3,20.7,2.6,23.4,2.6
	c2.6,0,4.9-2.3,6.6-2.3c1.6,0,1.6-4.3-3.3-4.9c-4.4-0.6-15.4-1.9-17.9-2.2c-0.3,0-0.6-0.2-0.9-0.4c-1.1-1.1-4.1-4.2-5.2-6.9
	c-1.3-3.3,8.9-26.3,11.8-30.3c3-3.9,7.2-15.8,7.2-16.8c0-0.8,4.7-10.3,6.5-14c0.4-0.8,1.4-1.1,2.2-0.6c2.4,1.5,7.2,4.9,11,10.3
	c5.3,7.6,10.2,12.8,10.2,25c0,12.2-0.7,30.6,1.3,35.9c2,5.3,4.9,15.5,11.8,16.5c6.9,1,66.8,4.3,76.7,1.6c9.9-2.6,15.8-3.9,20.7-3
	c4.9,1,24.7,5.6,30.3,5.3c5.6-0.3,40.2-3.5,48.4-4.7c4.4-0.6,13.6-1.9,16.8-0.6c2.8,1.2,3.8,8.8,11.2,3.3
	C864.5,251.9,862.8,247.8,861.8,233.3z"/>
<path fill="#662700" d="M1248.1,477.8c-1.2-7.9-5.1-10.7-4.9-14.1c0.1-1-0.7-3.4-2-5.9c0.8-1,1.4-2.1,1.7-3.3
	c1.5-6.2-4.9-13-14.3-15.2c-9.3-2.2-18.1,1.1-19.5,7.3c-0.6,2.4,0.1,5,1.6,7.3c-0.4,0.2-0.9,0.4-1.4,0.7c-3.6,2.1-13.8-2.1-16.6-5
	c-2.7-3-20.5-21.5-30.6-27.6c-10.1-6.2-38.3-21.5-64.9-18.3c-26.7,3.2-25.9,5.7-33.1,11.4c-7.2,5.7-20.5,22.1-10.9,36
	c9.6,13.9,22.5,32.2,22.5,32.2s-18.3,3.7-23.5,5.4c-5.2,1.7-5.9,2-9.4,2.2c-3.5,0.2-11.6-0.1-11.8,8c-0.2,8.1-1.2,9.3-1.2,9.3
	s-2.7,0.7-3.5,4.9c-0.7,4.2-3.2,20.5-2.7,23.7c0.5,3.2,7.7,18.5,9.1,20c1.5,1.5,4.7,2,5.7,0c1-2,3.2-7.9,3.2-7.9s3.2-2.2,3.7-4.4
	c0.5-2.2,0.2-16.3,1-18c0.7-1.7,5.7-4.4,6.4-4.7c0.7-0.2,17.8-0.5,17.8-0.5s15.1,6.7,33.8,6.9l1.7,40.2c0,0,0,9.9,5.9,10.4
	c5.9,0.5,14.8,3.9,17.8,3.9c3,0,6.4,0.2,6.1-0.7c-0.3-0.8,10.9,0.4,12.5,0.7c1.6,0.3,3.9-0.3,4.1-2.5c0.2-2.1-1.6-5.6-4.9-6.7
	c-3.3-1.2-12.8-2-13.2-2.5c-0.3-0.5-4.1-1.2-6.4-1.3c-2.3-0.2-7.2,2.3-7.7-3c-0.5-5.3,0.3-5.9,0.3-5.9s7.2,0.1,8.3,1.6
	c1.1,1.5,4.1,3,4.8,1.5c0.7-1.5,1.1-4.1,7.9-3.6c6.7,0.5,14.8-0.2,15-1.3c0.2-1.2-4.9-5.9-9.5-6.3c-4.6-0.3-22.7-1.5-23.4-2.8
	c-0.7-1.3-0.2-22.2-0.2-22.2s18.8-7.7,11.1-21.6c0,0,11.8-13.1,14.6-14.8c2.7-1.7,29.4-7.2,35.5-20.6c0,0,6.1,6.7,11,9.4
	c-1.8,3.5-5.5,12.6-2.2,14c0,0,2.6,0.5,3.8-0.2c0,0,2,2.5,2.8,2.2c0.8-0.3,1.7-0.9,1.7-1.1c0.1-0.2,1,2.3,1.6,2.3
	c0.5,0.1,2.9-0.2,3.4,1.1c0.5,1.3,1.3,3.7,2,4c0.7,0.2,1.5,0.4,3.3-0.9c1.9-1.3,5.7-3.7,8.4-1.9c0,0,0.9,0.7,4.6,0.6
	c3.8-0.1,13.3-3.2,16.3-5.3c3-2.1,6.2-7,6.7-11.4c0.1-1.4,0.2-2.4,0.2-3.1C1248.2,479.3,1248.2,478.6,1248.1,477.8z"/>
<path fill="#662700" d="M422.5,463.5C422.4,463.5,422.4,463.4,422.5,463.5c0.1-0.3,1.1-2.6,0.5-3c-0.6-0.5-1.4-0.9-1.5-0.9
	c-0.2,0,1.3-1.7,1.1-2.1c-0.2-0.4-1.3-2.1-0.5-2.9c0.8-0.8,2.3-2.5,2.2-3c-0.1-0.6-0.3-1.3-2-2.2c-1.7-0.9-5-2.9-4.7-5.6
	c0,0,0.2-0.9-1.4-3.7c-1.3-2.3-5.6-6.8-8.7-9.1c-1.3-1.2-2.9-2.3-5-3c-6.3-2.2-29.8-1-32,20.5c-4.1,1.6-6.4,7.3-5.2,13.5
	c1.3,6.6,6.3,11.2,11,10.3c0.5-0.1,0.9-0.3,1.4-0.5c0.3,1.5,0.1,3.7-1.4,4.4c-2.2,1-12.8,8.4-20.5,10.4c-7.7,2-28.6,2.7-32.6,2.7
	c-3.9,0-13.6,4.4-24.7,8.6c-11.1,4.2-22.7,7.4-26.7,5.9c-3.9-1.5-12.5-1.2-14.9-1.2c-2.5,0-8.3-2.1-10,0.9c-1.3,2.3,0.4,3.7,0.4,3.7
	s-2.1,0.1-4.1-0.1c-2-0.2-6.4-0.2-8.4,0c-2,0.2-10.6,2.7-10.6,5.7c0,0-22.7-16.8-35.5-16.8c-12.8,0-45.9,2-49.9,0
	c-3.9-2-1.5-7.9-10.9-4.9s-22.2,3-31.1,3c-8.9,0-8.4,1.5-7.4,2.5c1,1,9.6,6.7,11.4,6.9c1.7,0.2,3.9,1.2,7.2,1.2c0,0-4.7,2.7-10.4,3
	c-5.7,0.2-16.8,0.7-18.8,0.7c-2,0-2.5,3.9,0,4.4c2.5,0.5,15.3,6.2,19,8.4c3.7,2.2,19.3,5.9,28.4,4.2c9.1-1.7,38,2,39.5,2
	c1.5,0,10.9,7.4,18.8,7.4s25.7,6.9,27.6,7.4c2,0.5,34.1,12.6,36.8,12.8c2.7,0.2,34.6,3.7,62.5,3.5c27.9-0.2,37,0,37,0
	s9.1-4.7,13.1-8.2c3.9-3.5,17.2-4.2,22-12.3c5.3-9.1,7.4-27.9,6.2-31.3c-1.2-3.3,4.7-10.9,5.4-12.3c0.7-1.5,3.7-5.7,4.7-6.4
	c1-0.7,6.9-5.9,7.7-9.1c0.7-3.2,1.7-6.4,3-7.2c0.9-0.5,3-1.2,5.4-1.7c3.4,0,8.4-0.6,8.2-3.5C424.1,466.2,423.4,464.1,422.5,463.5z
	 M331.4,516.6c-3,0.8-6.6,1.8-10.3,1.5c-4.9-0.5-10.1,1-10.1,0c-0.1-1.3,8.4-4.7,10.6-5.4c1.5-0.5,6.6,1.1,9.8,2.2
	C332.3,515.2,332.2,516.4,331.4,516.6z"/>
<path fill="#662700" d="M796.5,879.3c-8-8-37.2-26.3-45.1-26.7c-7.9-0.3-21.1-2.6-21.1-2.6s2.1-43.6,3.5-47.6
	c1.5-3.9,6.9-13.6-0.7-22.5c-7.7-8.9-16.8-16-22.2-19.7c-5.4-3.7-8.1-5.3-7.9-8.3c0,0,0.1-35.1-2.2-39.3s-4.7-11.7-7.3-11.2
	c-2.6,0.5-7.6,8.8-7.6,8.8s-7.6,0-8.6-3.3c-1-3.3-5.9-10.3-14.8-5.5c-8.9,4.8-18.1,14-19.4,20.9c-0.3,1.4-0.6,4-0.7,6.7
	c-0.4,0.3-0.8,0.6-1.2,0.9c-4.4,4.1-3.8,12,1.4,17.6c5.2,5.6,13,6.8,17.4,2.7c0.5-0.5,1-1.1,1.4-1.7c0.4,0,0.7,0.1,1.1,0.1
	c14.8,1,3.3,25.3,7.6,29c4.3,3.6,13.8,12.5,16.8,19.7c3,7.2,6.3,34.2,1,43.1c-5.3,8.9-17.4,32.3,1.3,45.4c0,0-5.3-2.3-11.5,3.6
	c-6.3,5.9-10.9,9.9-12.8,10.9c-2,1-2.6,4.9,0.3,5.3c3,0.3-0.7,2,3.3,2.6c3.9,0.7,11.8,1.3,18.4,0c6.6-1.3,23,2.3,26.7,2.3
	c3.6,0,62.2,1.6,71.4,0c9.2-1.6,12.5-6.3,13.8-11.5C800.1,893.8,800.1,883,796.5,879.3z"/>
</svg>
