<?xml version="1.0" encoding="UTF-8" standalone="no"?>
<svg
   xmlns:dc="http://purl.org/dc/elements/1.1/"
   xmlns:cc="http://creativecommons.org/ns#"
   xmlns:rdf="http://www.w3.org/1999/02/22-rdf-syntax-ns#"
   xmlns:svg="http://www.w3.org/2000/svg"
   xmlns="http://www.w3.org/2000/svg"
   xmlns:sodipodi="http://sodipodi.sourceforge.net/DTD/sodipodi-0.dtd"
   xmlns:inkscape="http://www.inkscape.org/namespaces/inkscape"
   width="210mm"
   height="297mm"
   viewBox="0 0 210 297"
   version="1.1"
   id="svg8"
   inkscape:version="1.0.2 (e86c8708, 2021-01-15)"
   sodipodi:docname="drawing.svg">
  <defs
     id="defs2">
    <linearGradient
       id="SVGID_2_"
       gradientUnits="userSpaceOnUse"
       x1="920.04468"
       y1="129.3763"
       x2="1016.2737"
       y2="73.818398">
      <stop
         offset="0"
         style="stop-color:#FF8F73"
         id="stop35700" />
      <stop
         offset="1"
         style="stop-color:#EF7FC1"
         id="stop35702" />
    </linearGradient>
    <linearGradient
       id="SVGID_3_"
       gradientUnits="userSpaceOnUse"
       x1="597.31671"
       y1="428"
       x2="597.31671"
       y2="252.0937">
      <stop
         offset="0"
         style="stop-color:#BF7245"
         id="stop35709" />
      <stop
         offset="1"
         style="stop-color:#BDD18A"
         id="stop35711" />
    </linearGradient>
    <linearGradient
       id="SVGID_4_"
       gradientUnits="userSpaceOnUse"
       x1="612.1723"
       y1="428"
       x2="612.1723"
       y2="252.0937">
      <stop
         offset="0"
         style="stop-color:#DB8553"
         id="stop35716" />
      <stop
         offset="1"
         style="stop-color:#DFFFAB"
         id="stop35718" />
    </linearGradient>
    <linearGradient
       id="SVGID_5_"
       gradientUnits="userSpaceOnUse"
       x1="701"
       y1="980"
       x2="701"
       y2="179.8736">
      <stop
         offset="0"
         style="stop-color:#BF7245"
         id="stop35725" />
      <stop
         offset="1"
         style="stop-color:#FFB2DE"
         id="stop35727" />
    </linearGradient>
    <linearGradient
       id="SVGID_6_"
       gradientUnits="userSpaceOnUse"
       x1="368.72531"
       y1="980"
       x2="368.72531"
       y2="436.83511">
      <stop
         offset="0"
         style="stop-color:#BF7245"
         id="stop35732" />
      <stop
         offset="1"
         style="stop-color:#BDD18A"
         id="stop35734" />
    </linearGradient>
    <linearGradient
       id="SVGID_7_"
       gradientUnits="userSpaceOnUse"
       x1="414.552"
       y1="980"
       x2="414.552"
       y2="436.83511">
      <stop
         offset="0"
         style="stop-color:#DB8553"
         id="stop35739" />
      <stop
         offset="1"
         style="stop-color:#DFFFAB"
         id="stop35741" />
    </linearGradient>
    <linearGradient
       id="SVGID_8_"
       gradientUnits="userSpaceOnUse"
       x1="961.4812"
       y1="572"
       x2="961.4812"
       y2="363.59381">
      <stop
         offset="0"
         style="stop-color:#BF7245"
         id="stop35748" />
      <stop
         offset="1"
         style="stop-color:#BDD18A"
         id="stop35750" />
    </linearGradient>
    <linearGradient
       id="SVGID_9_"
       gradientUnits="userSpaceOnUse"
       x1="979.03149"
       y1="572"
       x2="979.03149"
       y2="363.59381">
      <stop
         offset="0"
         style="stop-color:#DB8553"
         id="stop35755" />
      <stop
         offset="1"
         style="stop-color:#DFFFAB"
         id="stop35757" />
    </linearGradient>
    <linearGradient
       id="SVGID_10_"
       gradientUnits="userSpaceOnUse"
       x1="653.04718"
       y1="980"
       x2="653.04718"
       y2="837">
      <stop
         offset="0"
         style="stop-color:#FFDBA6"
         id="stop35764" />
      <stop
         offset="1"
         style="stop-color:#FFFBD4"
         id="stop35766" />
    </linearGradient>
    <linearGradient
       id="SVGID_11_"
       gradientUnits="userSpaceOnUse"
       x1="701.27118"
       y1="837"
       x2="701.27118"
       y2="631">
      <stop
         offset="0"
         style="stop-color:#FFDBA6"
         id="stop35771" />
      <stop
         offset="1"
         style="stop-color:#FFFBD4"
         id="stop35773" />
    </linearGradient>
    <linearGradient
       id="SVGID_12_"
       gradientUnits="userSpaceOnUse"
       x1="829.98511"
       y1="631"
       x2="829.98511"
       y2="425">
      <stop
         offset="0"
         style="stop-color:#FFDBA6"
         id="stop35778" />
      <stop
         offset="1"
         style="stop-color:#FFFBD4"
         id="stop35780" />
    </linearGradient>
    <linearGradient
       id="SVGID_13_"
       gradientUnits="userSpaceOnUse"
       x1="751.99731"
       y1="425"
       x2="751.99731"
       y2="180.4342">
      <stop
         offset="0"
         style="stop-color:#FFDBA6"
         id="stop35785" />
      <stop
         offset="1"
         style="stop-color:#FFFBD4"
         id="stop35787" />
    </linearGradient>
    <linearGradient
       id="SVGID_14_"
       gradientUnits="userSpaceOnUse"
       x1="1270.7201"
       y1="980"
       x2="1270.7201"
       y2="483.82458">
      <stop
         offset="0"
         style="stop-color:#BF7245"
         id="stop35794" />
      <stop
         offset="1"
         style="stop-color:#BDD18A"
         id="stop35796" />
    </linearGradient>
    <linearGradient
       id="SVGID_15_"
       gradientUnits="userSpaceOnUse"
       x1="1312.5748"
       y1="980"
       x2="1312.5748"
       y2="483.82458">
      <stop
         offset="0"
         style="stop-color:#DB8553"
         id="stop35801" />
      <stop
         offset="1"
         style="stop-color:#DFFFAB"
         id="stop35803" />
    </linearGradient>
    <linearGradient
       id="SVGID_16_"
       gradientUnits="userSpaceOnUse"
       x1="165.99561"
       y1="980"
       x2="165.99561"
       y2="617.65082">
      <stop
         offset="0"
         style="stop-color:#BF7245"
         id="stop35810" />
      <stop
         offset="1"
         style="stop-color:#BDD18A"
         id="stop35812" />
    </linearGradient>
    <linearGradient
       id="SVGID_17_"
       gradientUnits="userSpaceOnUse"
       x1="196.5468"
       y1="980"
       x2="196.5468"
       y2="617.65082">
      <stop
         offset="0"
         style="stop-color:#DB8553"
         id="stop35817" />
      <stop
         offset="1"
         style="stop-color:#DFFFAB"
         id="stop35819" />
    </linearGradient>
  </defs>
  <sodipodi:namedview
     id="base"
     pagecolor="#ffffff"
     bordercolor="#666666"
     borderopacity="1.0"
     inkscape:pageopacity="0.0"
     inkscape:pageshadow="2"
     inkscape:zoom="0.20286151"
     inkscape:cx="2729.2504"
     inkscape:cy="347.79729"
     inkscape:document-units="mm"
     inkscape:current-layer="Layer_2"
     inkscape:document-rotation="0"
     showgrid="false"
     inkscape:snap-global="true"
     inkscape:window-width="1680"
     inkscape:window-height="939"
     inkscape:window-x="0"
     inkscape:window-y="23"
     inkscape:window-maximized="1" />
  <metadata
     id="metadata5">
    <rdf:RDF>
      <cc:Work
         rdf:about="">
        <dc:format>image/svg+xml</dc:format>
        <dc:type
           rdf:resource="http://purl.org/dc/dcmitype/StillImage" />
        <dc:title></dc:title>
      </cc:Work>
    </rdf:RDF>
  </metadata>
  <g
     inkscape:label="Layer 1"
     inkscape:groupmode="layer"
     id="layer1">
    <g
       id="g16779"
       transform="matrix(0.26458333,0,0,0.26458333,-277.08991,-80.22185)">
      <g
         id="g16809"
         transform="matrix(0.13333333,0,0,-0.13333333,375.63036,2085.4536)">
        <g
           id="g35466"
           transform="matrix(7.5000003,0,0,-7.5000003,4328.9549,9550.5068)">
          <g
             id="g35478"
             transform="matrix(0.13333333,0,0,-0.13333333,-1274.5472,1338.5609)">
            <path
               d="m 12410.8,12920.4 580.9,-850.2 -423.4,-408 c -17.6,-16.9 -46.9,-4.7 -47.4,19.7 -0.1,3.9 -0.1,7.9 -0.2,11.8 -0.6,58.5 20.3,114.9 56.6,160.8 40.8,51.6 66,122.1 66,199.9 0,158.2 -104.1,286.4 -232.5,286.4 -128.5,0 -232.6,-128.2 -232.6,-286.4 0,-77.8 25.2,-148.3 66,-199.9 36.3,-45.9 57.2,-102.3 56.6,-160.8 -0.1,-3.9 -0.1,-7.9 -0.2,-11.8 -0.5,-24.4 -29.8,-36.6 -47.4,-19.7 l -423.4,408 z m 0,925.2 c 772.8,0 1399.3,-664.5 1399.3,-1484.3 0,-598.7 -334.2,-1114.5 -815.5,-1349.2 -135.2,-65.9 -280.8,67.9 -226.8,208.3 86.9,226.1 241.4,494.6 513.4,772.8 l -795.2,947.8 -75.2,321.7 -75.3,-321.7 -795.2,-947.8 c 272,-278.2 426.5,-546.7 513.4,-772.8 54,-140.4 -91.6,-274.2 -226.8,-208.3 -481.3,234.7 -815.5,750.5 -815.5,1349.2 0,819.8 626.5,1484.3 1399.4,1484.3 -866.7,0 -1569.3,-702.6 -1569.3,-1569.2 0,-866 703.3,-1569.3 1569.3,-1569.3 866.6,0 1569.2,702.6 1569.2,1569.3 0,866.6 -702.6,1569.2 -1569.2,1569.2"
               style="fill:#36ab9c;fill-opacity:1;fill-rule:nonzero;stroke:none"
               id="path35480" />
            <path
               d="m 7425.66,12284 c 17.06,-16.4 45.46,-4.6 45.93,19.1 0.08,3.8 0.14,7.6 0.18,11.4 0.59,56.7 -19.59,111.3 -54.79,155.8 -39.54,50 -63.91,118.3 -63.91,193.6 0,153.2 100.85,277.5 225.26,277.5 v 561.5 l -562.82,-823.7 410.15,-395.2"
               style="fill:#36ab9c;fill-opacity:1;fill-rule:nonzero;stroke:none"
               id="path35482" />
            <path
               d="m 7803.58,12663.9 c 0,-75.3 -24.37,-143.6 -63.91,-193.6 -35.2,-44.5 -55.38,-99.1 -54.78,-155.8 0.04,-3.8 0.1,-7.6 0.17,-11.4 0.48,-23.7 28.87,-35.5 45.93,-19.1 l 410.15,395.2 -562.81,823.7 v -561.5 c 124.4,0 225.25,-124.3 225.25,-277.5"
               style="fill:#1c1c1d;fill-opacity:1;fill-rule:nonzero;stroke:none"
               id="path35484" />
            <path
               d="m 7578.33,13921.9 v -87.4 l 72.94,-311.7 770.31,-918.2 c -695.12,-710.9 -597.9,-1356.3 -597.9,-1356.3 0,0 212.19,311.7 762.57,106.1 20.87,-7.8 38.7,-15.7 53.71,-23.7 278.68,274.4 451.47,656.1 451.47,1078.1 0,835.6 -677.44,1513.1 -1513.1,1513.1"
               style="fill:#1c1c1d;fill-opacity:1;fill-rule:nonzero;stroke:none"
               id="path35486" />
            <path
               d="m 6065.22,12408.8 c 0,-422 172.8,-803.7 451.47,-1078.1 15.01,8 32.84,15.9 53.72,23.7 550.37,205.6 762.57,-106.1 762.57,-106.1 0,0 97.22,645.4 -597.9,1356.3 l 770.31,918.2 72.94,311.7 v 87.4 c -835.67,0 -1513.11,-677.5 -1513.11,-1513.1"
               style="fill:#36ab9c;fill-opacity:1;fill-rule:nonzero;stroke:none"
               id="path35488" />
            <path
               d="m 18517.354,6987.9309 c 736.7,0 1334,-649.9 1334,-1451.6 0,-423.8 -166.8,-805.1 -433,-1070.5 0.5,1.1 1,2.1 1.5,3.1 18.9,43 -12.6,91.1 -59.5,92.4 -229.6,6.5 -498.5,-135.7 -576.6,24.1 -83.5,171 0,568.8 0,568.8 115.4,-604.6 485.3,-592.7 485.3,-592.7 -393.8,175 -282.4,708 -314.2,819.4 -21.1,73.6 -189.7,124.5 -320.5,169.5 -21.9,7.5 -36.5,28.1 -36.5,51.2 v 0 c 0,17.4 8.5,33.5 22.5,44 50.8,37.9 81.9,104.1 81.9,179.3 0,117.9 -76.2,228.2 -184.9,228.2 -108.8,0 -185,-110.3 -185,-228.2 0,-75.2 31.1,-141.4 81.9,-179.3 14,-10.5 22.5,-26.6 22.5,-44 0,-23.1 -14.6,-43.7 -36.5,-51.2 -130.8,-45 -299.4,-95.9 -320.5,-169.5 -31.8,-111.4 79.6,-644.4 -314.2,-819.4 0,0 369.9,-11.9 485.3,592.7 0,0 83.5,-397.8 0,-568.8 -78.1,-159.8 -347,-17.6 -576.6,-24.1 -46.9,-1.3 -78.4,-49.4 -59.5,-92.4 0.5,-1 1,-2 1.5,-3.1 -266.2,265.4 -433,646.7 -433,1070.5 0,801.7 597.3,1451.6 1334.1,1451.6 -866.7,0 -1569.3,-702.6 -1569.3,-1569.2 0,-866.7 702.6,-1569.3 1569.3,-1569.3 866.6,0 1569.2,702.6 1569.2,1569.3 0,866.6 -702.6,1569.2 -1569.2,1569.2"
               style="fill:#1c5e51;fill-opacity:0.789474;fill-rule:nonzero;stroke:none"
               id="path35490"
               inkscape:export-xdpi="96"
               inkscape:export-ydpi="96" />
            <path
               d="m 6597.76,6499.5 c 259.53,7.4 563.47,-153.3 651.66,27.3 94.4,193.3 0,642.8 0,642.8 -130.37,-683.3 -548.46,-669.8 -548.46,-669.8 445.06,197.8 319.19,800.2 355.15,926.1 23.77,83.2 214.33,140.8 362.22,191.6 24.71,8.5 41.26,31.8 41.26,57.9 0,19.7 -9.65,37.9 -25.41,49.6 -57.42,43 -92.59,117.7 -92.59,202.8 0,111.8 60.76,217.6 153.02,248.7 66.4,314.7 252.27,616.7 444.13,859.9 -707.49,188.5 -1468.29,-155.4 -1781.43,-844.1 -282.42,-621.1 -114.16,-1332.2 366.94,-1766 0.81,38.1 31.72,72.1 73.51,73.2"
               style="fill:#36ab9c;fill-opacity:1;fill-rule:nonzero;stroke:none"
               id="path35492" />
            <path
               d="m 8196.17,8942.6 c -78.99,35.9 -159.44,64.5 -240.59,86.1 -189.21,-239.8 -372.59,-536.8 -441.3,-846.9 11.71,2.5 23.82,3.8 36.34,3.8 122.9,0 209.03,-124.6 209.03,-257.8 0,-85.1 -35.17,-159.8 -92.59,-202.8 -15.76,-11.7 -25.41,-29.9 -25.41,-49.6 0,-26.1 16.55,-49.4 41.27,-57.9 147.88,-50.8 338.45,-108.4 362.21,-191.6 35.97,-125.9 -89.91,-728.3 355.15,-926.1 0,0 -418.08,-13.5 -548.45,669.8 0,0 -94.41,-449.5 0,-642.8 88.18,-180.6 392.13,-19.9 651.65,-27.3 48.47,-1.3 82.31,-46.8 71.51,-91.7 156.5,138 287.14,310.5 379.11,512.7 349.07,767.7 9.73,1673 -757.93,2022.1"
               style="fill:#1c1c1d;fill-opacity:1;fill-rule:nonzero;stroke:none"
               id="path35494" />
            <path
               fill="#662700"
               d="m 24904.58,14200.855 c -6.75,15 -9.75,29.25 -11.25,39.75 -1.5,9 -12,14.25 -20.25,9 -10.5,-6.75 -23.25,-18 -25.5,-33.75 -5.25,-30.75 -19.5,-64.5 -29.25,-71.25 -9.75,-7.5 -130.5,-180 -128.25,-216 2.25,-36 -168,-228 -204.75,-267.75 -36.75,-39.75 -210,-172.5 -210,-172.5 0,0 -153,12 -183,12 -30,0 -170.25,33 -225,24 -54,-9 -218.25,-9 -240.75,0 -22.5,9 -66.75,42 -90.75,48 -24,5.25 -107.25,9 -129.75,9 -22.5,0 -47.25,42.75 -45.75,60.75 0,0 94.5,-2.25 96.75,18 0,0 -1.5,15 -7.5,21.75 0,0.75 0,2.25 0.75,3 3,4.5 9.75,15.75 6.75,19.5 -2.25,3 -5.25,5.25 -7.5,6.75 0,1.5 -0.75,2.25 -0.75,3.75 3,3 9.75,9 9,12 -0.75,3 -6.75,17.25 0,22.5 6.75,5.25 20.25,15 20.25,19.5 0,4.5 0,9.75 -11.25,18.75 -11.25,9 -33,27.75 -27,48 0,0 3,6.75 -5.25,29.25 -8.25,22.5 -44.25,75 -63,89.25 -18.75,14.25 -72,45.75 -99.75,40.5 -6,-1.5 -10.5,-2.25 -14.25,-3 -69.75,1.5 -136.5,-36 -147.75,-75 -6,-19.5 -14.25,-38.25 -21.75,-57 -6,-0.75 -11.25,-1.5 -16.5,-4.5 -36,-16.5 -45,-73.5 -20.25,-126.75 24.75,-54 73.5,-84 109.5,-67.5 4.5,2.25 9,5.25 12.75,8.25 5.25,-5.25 32.25,-34.5 38.25,-53.25 7.5,-21 0,-96 -1.5,-109.5 -1.5,-13.5 -44.25,-88.5 -15.75,-139.5 28.5,-50.25 84,-118.5 176.25,-176.25 92.25,-57.75 166.5,-138 201,-189.75 34.5,-51.75 134.25,-177 180.75,-192 46.5,-15 172.5,-31.5 214.5,0 42.75,31.5 85.5,100.5 172.5,234 86.25,133.5 202.5,279 252,313.5 49.5,34.5 238.5,162.75 261,254.25 7.5,31.5 94.5,187.5 121.5,210 27,22.5 51.75,39.75 66.75,45.75 15,6 57.75,29.25 50.25,64.5 -7.5,35.25 -22.5,75.75 -22.5,122.25 0,46.5 33,96 33,103.5 3,5.25 15.75,14.25 3,44.25 z m -854.25,-872.25 c -9,-9 -149.25,-136.5 -167.25,-136.5 -3,0 -102,82.5 -148.5,122.25 -8.25,6.75 -3,19.5 7.5,18.75 75.75,-3 244.5,-8.25 269.25,2.25 31.5,12.75 48,2.25 39,-6.75 z"
               id="path35522"
               style="opacity:0.8;fill:#1c5d51;fill-opacity:0.792157;stroke-width:7.5"
               inkscape:export-xdpi="96"
               inkscape:export-ydpi="96" />
            <path
               fill="#662700"
               d="m 25234.433,7988.2118 c -26.25,9 -45,9.75 -60,14.25 -32.25,9.75 9,20.25 -71.25,21.75 -42.75,0.75 -76.5,17.25 -76.5,17.25 0,0 -16.5,42.75 -20.25,54 -3.75,11.25 55.5,9 60.75,3.75 5.25,-5.25 21.75,-27 29.25,-15 6.75,10.5 11.25,9 11.25,9 12.75,6.75 75.75,-3.75 109.5,3.75 0,0 3,15 -17.25,22.5 -20.25,7.5 -74.25,18.75 -102,24 -27.75,5.25 -108,29.25 -114,29.25 -5.25,0 -57.75,228 -57.75,228 0,0 27.75,107.25 48,133.5 20.25,26.25 55.5,51.75 18.75,135.75 -36.75,84 -105.75,188.25 -105.75,197.25 0,9 9,118.5 -24.75,114.75 -15,-1.5 -7.5,-0.75 -6.75,14.25 2.25,35.25 -10.5,69 -3.75,77.25 1.5,2.25 3.75,4.5 5.25,6 24.75,2.25 104.25,31.5001 98.25,60.7501 0,0 -7.5,17.25 -16.5,21 0,0 6.75,21.75 1.5,25.5 -5.25,3 -12,6 -13.5,5.25 -1.5,-0.75 9,15 6.75,18.75 -1.5,3 -12.75,15.75 -7.5,24 5.25,7.5 16.5,23.25 15,27.75 -1.5,4.5 -3.75,10.5 -18.75,15.75 -15,5.25 -45,18 -45,41.25 0,0 0.75,7.5 -15.75,29.25 -16.5,21 -72.75,64.5 -97.5,72.75 -15,5.25 -36.75,6.75 -57.75,3.75 -3,0 -5.25,0 -6.75,-1.5 0,0 0,0 0,0 -8.25,-1.5 -15.75,-4.5 -23.25,-7.5 -52.5,-15.75 -156,-56.25 -174,-143.25 -0.75,-5.25 -3,-15.75 -5.25,-29.25 -37.5,-1.5 -67.5,-47.25 -67.5,-103.5 0,-57.0001 30.75,-103.5001 69,-103.5001 13.5,0 26.25,6 37.5,16.5 43.5,-15 93.75,23.25 115.5,-68.25 4.5,-18 -12.75,-102 -12.75,-126 0,-24 11.25,-29.25 16.5,-83.25 5.25,-54 7.5,-144.75 -5.25,-200.25 -12.75,-55.5 -12.75,-122.25 -42.75,-131.25 -29.25,-9 -105.75,11.25 -157.5,-20.25 -51.75,-31.5 -157.5,-99.75 -181.5,-105.75 -24,-6 -144.75,-16.5 -177.75,-27.75 -33,-11.25 -133.5,-22.5 -153.75,-16.5 -20.25,5.25 -176.25,63 -201.75,59.25 -26.25,-3.75 -118.5,9 -174,-9 -55.5,-18.75 -105.75,-24 -147.75,-26.25 -42.75,-1.5 -79.5,3.75 -99.75,12.75 -20.25,9 -40.5,50.25 -75.75,18.75 -35.25,-31.5 -59.25,-68.25 -83.25,-68.25 -24,0 -131.25,-36.75 -137.25,-46.5 -5.25,-9 5.25,-24 0,-35.25 -5.25,-11.25 -87,-60.75 -117,-75.75 -29.25,-15 -35.25,-24 -55.5,-40.5 -20.25,-16.5 36.75,-39 81.75,-18.75 44.25,20.25 107.25,11.25 133.5,7.5 26.25,-3.75 150,-5.25 194.25,18.75 44.25,24 103.5,26.25 138.75,24 35.25,-1.5 242.25,-44.25 305.25,-26.25 0,0 51.75,-21.75 155.25,-32.25 103.5,-10.5 522,-29.25 568.5,-19.5 46.5,9 138.75,31.5 214.5,75.75 75.75,44.25 216.75,165 216.75,165 0,0 35.25,-155.25 46.5,-172.5 11.25,-16.5 29.25,-78 57.75,-96 27.75,-18.75 31.5,-26.25 113.25,-31.5 81.75,-5.25 143.25,4.5 156.75,4.5 13.5,0 33,17.25 6.75,26.25 z"
               id="path35516"
               style="stroke-width:7.5;fill:#1c5b50;fill-opacity:0.63529414"
               inkscape:export-xdpi="96"
               inkscape:export-ydpi="96" />
            <path
               fill="#662700"
               d="m 18346.433,8082.7118 c -22.5,20.25 -83.25,40.5 -85.5,42.75 -1.5,1.5 -48,44.25 -48,44.25 0,0 -26.25,266.25 -39,297.75 -12.75,31.5 27.75,117 31.5,176.25 3.75,59.25 -20.25,127.5 -54,135 -33,7.5 -29.25,63 -18.75,88.5 11.25,26.25 11.25,109.5 -7.5,144.75 -18.75,35.25 -60.75,59.25 -60.75,59.25 0,0 31.5,40.5001 36.75,44.2501 5.25,3.75 31.5,15 50.25,60.75 18.75,46.5 27.75,88.5 26.25,144.75 -1.5,55.5 -57.75,153.75 -96,165 -39,11.25 -129.75,-12.75 -155.25,-54 -8.25,-13.5 -18.75,-30.75 -27.75,-48.75 -5.25,0.75 -10.5,0.75 -15.75,0 -33,-6.75 -51.75,-52.5 -42,-102 9.75,-49.5 44.25,-84 77.25,-78 7.5,-16.5 15,-39.75 12.75,-66 0,0 -29.25,-32.2501 -86.25,-44.2501 -57,-12 -106.5,-24.75 -135.75,-93.75 -29.25,-69 -118.5,-165.75 -130.5,-175.5 -12,-9.75 -192.75,-170.25 -202.5,-204.75 -9.75,-34.5 -64.5,-88.5 -91.5,-141 -27,-51.75 -153,-168 -175.5,-175.5 -22.5,-7.5 -78.75,-9.75 -118.5,0 -39.75,9.75 -111,19.5 -158.25,15 -47.25,-5.25 -108.75,-9.75 -120.75,2.25 -12,12 -7.5,51.75 -32.25,47.25 -24.75,-5.25 -71.25,-43.5 -108,-57.75 -36.75,-15 -78,-33 -83.25,-36.75 -5.25,-3.75 -33,-11.25 -33,-11.25 0,0 3.75,-31.5 24,-31.5 20.25,0 83.25,15 109.5,11.25 26.25,-3.75 74.25,-16.5 102,-11.25 27.75,5.25 249.75,-70.5 257.25,-70.5 7.5,0 87,-64.5 181.5,-27.75 94.5,36.75 273.75,147.75 316.5,172.5 42.75,24 177.75,96 190.5,96 12.75,0 102,3.75 102,3.75 0,0 -1.5,-310.5 10.5,-335.25 0,0 -24.75,-153 -17.25,-155.25 7.5,-2.25 42,12 42,12 0,0 32.25,4.5 34.5,-12.75 2.25,-17.25 42,0 42,0 0,0 12,-19.5 22.5,-19.5 10.5,0 32.25,12 32.25,12 0,0 51.75,5.25 27,34.5 -24.75,29.25 -43.5,48 -43.5,48 0,0 28.5,-9.75 33,-3.75 5.25,6 -29.25,45 -46.5,65.25 -16.5,20.25 -31.5,31.5 -35.25,133.5 -3.75,102 5.25,190.5 0,246 0,0 107.25,62.25 133.5,85.5 0,0 -18.75,-111.75 -18.75,-178.5 0,-66.75 -24,-142.5 -24,-142.5 0,0 -26.25,-98.25 -20.25,-117 5.25,-18.75 54,-26.25 63,-22.5 9,3.75 60.75,-1.5 74.25,-7.5 13.5,-6 127.5,-36.75 137.25,-36.75 9,0 42.75,-5.25 46.5,9 3.75,15 -24,27.75 -35.25,40.5 -11.25,12.75 -39,33 -39,33 0,0 61.5,-9 74.25,-20.25 12.75,-11.25 49.5,-26.25 49.5,-26.25 l 66.75,3.75 c -0.75,2.25 21.75,13.5 -0.75,33.75 z m -201.75,97.5 c -6,-6 -12,-31.5 -17.25,-48 -1.5,-5.25 -6.75,-9 -12,-9.75 -5.25,0 -12,0 -15,0.75 -4.5,0.75 -36,26.25 -52.5,39 -6,4.5 -7.5,12 -5.25,19.5 l 57.75,169.5 c 0,0.75 0.75,0.75 0.75,1.5 0,0 8.25,24 15.75,24 4.5,0 19.5,-117.75 19.5,-117.75 0.75,-3 0.75,-6 0.75,-9 -1.5,-15 13.5,-63 7.5,-69.75 z"
               id="path35518"
               style="stroke-width:7.5;fill:#1c5b50;fill-opacity:0.63529414"
               inkscape:export-xdpi="96"
               inkscape:export-ydpi="96" />
            <path
               fill="#662700"
               d="m 21488.933,10471.462 c -40.5,57.75 -257.25,177.75 -301.5,196.5 -44.25,18.75 -200.25,35.25 -218.25,35.25 -18.75,0 -20.25,345 -22.5,352.5 -2.25,7.5 -24,159 -135.75,210.75 -121.5,56.25 -112.5,222.75 -90,286.5 25.5,3 81.75,12 76.5,39.75 0,0 -7.5,17.25 -16.5,21 0,0 6.75,21.75 1.5,25.5 -5.25,3 -12,6 -13.5,5.25 -1.5,-0.75 9,15 6.75,18.75 -1.5,3 -12.75,15.75 -7.5,24 5.25,7.5 16.5,23.25 15,27.75 -1.5,4.5 -3.75,10.5 -18.75,15.75 -15,5.25 -45,18 -45,41.25 0,0 0.75,7.5 -15.75,29.25 -16.5,21 -72.75,64.5 -97.5,72.75 -24.75,8.25 -66,7.5 -93.75,-8.25 -6,-3.75 -10.5,-6 -15,-9 -33,-13.5 -111.75,-51 -144.75,-150 -2.25,-0.75 -4.5,-2.25 -6.75,-3.75 -32.25,-21 -33.75,-77.25 -2.25,-126 31.5,-48.75 82.5,-71.25 114.75,-50.25 6,3.75 10.5,8.25 14.25,14.25 4.5,-1.5 9,-3 13.5,-5.25 61.5,-29.25 66.75,-49.5 72,-69.75 5.25,-19.5 -22.5,-170.25 -12,-219.75 9.75,-49.5 28.5,-311.25 28.5,-384.75 0,-74.25 -12,-141 -12,-177.75 0,-29.25 4.5,-180 6.75,-240.75 0.75,-16.5 -6,-31.5 -18.75,-42.75 -26.25,-23.25 -72,-66 -79.5,-88.5 -11.25,-31.5 -20.25,-46.5 -3.75,-51.75 16.5,-5.25 39.75,-15.75 39.75,-30.75 0,-15 3.75,-44.25 47.25,-33 43.5,11.25 54,41.25 78,43.5 24,1.5 187.5,-23.25 198.75,-23.25 11.25,0 540.75,-3.75 555.75,7.5 15,11.25 85.5,31.5 103.5,81.75 17.25,49.5 39.75,108.75 -1.5,165.75 z"
               id="path35520"
               style="stroke-width:7.5;fill:#1c5b50;fill-opacity:0.63529414"
               inkscape:export-xdpi="96"
               inkscape:export-ydpi="96" />
            <path
               fill="#662700"
               d="m 18222.683,12886.462 c -57,11.25 -51.75,40.5 -51.75,40.5 10.5,-9.75 120.75,-16.5 54.75,34.5 -36.75,28.5 -133.5,64.5 -171,87 -33,20.25 -21,314.25 -23.25,377.25 0,7.5 0.75,14.25 3,21 10.5,31.5 39,132 18,183.75 -13.5,33 -367.5,42 -429.75,19.5 -61.5,-22.5 -130.5,-51.75 -158.25,-51.75 -27,0 -204.75,22.5 -204.75,22.5 0,0 -80.25,-15.75 -120.75,7.5 -21,12 -91.5,36.75 -103.5,61.5 -12,24.75 -59.25,57 -120.75,57 -61.5,0 -96,17.25 -96,17.25 l -26.25,36.75 c 0,0 24,42.75 20.25,59.25 -3.75,16.5 13.5,44.25 0.75,92.25 -13.5,48 -2.25,66.75 -21,96 -18.75,29.25 -142.5,92.25 -196.5,20.25 -38.25,-51.75 -45.75,-95.25 -45,-120.75 -6.75,0 -13.5,-0.75 -20.25,-3.75 -30.75,-14.25 -38.25,-63 -17.25,-109.5 21,-46.5 63.75,-72.75 94.5,-58.5 2.25,1.5 4.5,2.25 6.75,4.5 17.25,-12 36.75,-21.75 36.75,-38.25 0,-20.25 -12.75,-49.5 -18.75,-103.5 -3.75,-32.25 11.25,-102 -1.5,-165 -12.75,-63 -33,-141 -26.25,-165 7.5,-24 -31.5,-189 -31.5,-209.25 0,-20.25 3.75,-207 3.75,-207 0,0 0,-39 66.75,-48 66.75,-9 87,-11.25 102.75,-11.25 39.75,0.75 58.5,12.75 74.25,15 15,1.5 46.5,10.5 44.25,16.5 -6.75,19.5 -65.25,17.25 -76.5,22.5 -11.25,5.25 -19.5,8.25 -31.5,15.75 -12,7.5 -63,18.75 -88.5,24.75 -24,6 -19.5,24 -13.5,39.75 2.25,5.25 23.25,-13.5 56.25,-17.25 33,-3.75 89.25,-2.25 99.75,1.5 9.75,3.75 31.5,2.25 35.25,2.25 3.75,0 41.25,12 46.5,12 5.25,0 -9.75,38.25 -36.75,42 -27,3.75 -130.5,1.5 -144.75,13.5 -7.5,6.75 -26.25,176.25 -11.25,231 15,54 59.25,214.5 59.25,237 0,22.5 155.25,-91.5 175.5,-91.5 19.5,0 271.5,-39.75 288.75,-36.75 17.25,2.25 113.25,-91.5 185.25,-74.25 71.25,17.25 170.25,49.5 197.25,57 27,7.5 254.25,57 266.25,86.25 0,0 3.75,-144.75 33,-217.5 22.5,-54 15,-120.75 19.5,-153 5.25,-32.25 -40.5,-103.5 -13.5,-118.5 27,-15 39.75,-9.75 39.75,-32.25 0,-22.5 -17.25,-96 39.75,-93.75 57,2.25 193.5,9.75 216,5.25 22.5,-5.25 103.5,6 102.75,15.75 -4.5,31.5 -57,44.25 -87,50.25 z"
               id="path35524"
               style="stroke-width:7.5;fill:#1c5b50;fill-opacity:0.63529414"
               inkscape:export-xdpi="96"
               inkscape:export-ydpi="96" />
            <path
               fill="#662700"
               d="m 21988.433,12982.462 c -7.5,108.75 4.5,192 6.75,213.75 2.25,22.5 -9,45.75 -29.25,42 -24.75,-4.5 -30.75,-45.75 -39.75,-27 -9,18.75 17.25,105 -15.75,93.75 -33,-11.25 -47.25,-36.75 -50.25,-78.75 -3.75,-42 -36,-165.75 -80.25,-180 -44.25,-15 -282.75,2.25 -339.75,5.25 -57,2.25 -160.5,17.25 -189.75,19.5 -29.25,2.25 -493.5,101.25 -562.5,108.75 -69,7.5 -49.5,57 -36.75,91.5 12,34.5 -12,200.25 -19.5,219.75 -7.5,19.5 -39.75,118.5 -42,138 -2.25,19.5 2.25,51.75 -69,81.75 -71.25,29.25 -222.75,95.25 -259.5,126.75 -35.25,30 -36.75,55.5 -35.25,82.5 0,3 1.5,5.25 3.75,7.5 13.5,12 62.25,59.25 39.75,78.75 0,0 -9.75,5.25 -18.75,6.75 -3.75,0.75 -7.5,3 -9,6.75 -3,6 -6.75,12.75 -10.5,12.75 -6,-0.75 -12.75,-3 -13.5,-3.75 -0.75,-0.75 -2.25,16.5 -5.25,18 -3,1.5 -18.75,4.5 -19.5,13.5 0,9 -0.75,26.25 -4.5,29.25 -3.75,3 -9,5.25 -23.25,1.5 -14.25,-4.5 -44.25,-12 -57.75,4.5 0,0 -3.75,6 -28.5,12.75 -24,6.75 -91.5,6 -114.75,-1.5 -13.5,-4.5 -84.75,-61.5 -99.75,-117.75 -13.5,-48.75 -18.75,-102 -6.75,-145.5 -6,-24 -3,-55.5 11.25,-85.5 24.75,-54 73.5,-84 109.5,-67.5 23.25,10.5 35.25,38.25 33.75,71.25 51.75,3.75 93.75,11.25 114.75,-42 2.25,-5.25 1.5,-10.5 -2.25,-14.25 -18.75,-18 -72.75,-75 -72.75,-129.75 0,-66.75 -103.5,-244.5 -111,-261.75 -7.5,-17.25 -44.25,-145.5 -59.25,-185.25 -15,-39.75 -47.25,-197.25 -44.25,-231.75 2.25,-34.5 34.5,-74.25 54,-78.75 18,-4.5 149.25,-9 175.5,-9.75 3,0 5.25,0.75 7.5,2.25 6,4.5 19.5,14.25 36.75,14.25 22.5,0 66.75,12 39.75,24.75 -27,12 -160.5,29.25 -189.75,27 -29.25,-2.25 -57,30 -47.25,47.25 3,4.5 6,10.5 9,16.5 4.5,9 17.25,9.75 21,0.75 3.75,-7.5 10.5,-14.25 21.75,-15 32.25,-2.25 155.25,-19.5 175.5,-19.5 19.5,0 36.75,17.25 49.5,17.25 12,0 12,32.25 -24.75,36.75 -33,4.5 -115.5,14.25 -134.25,16.5 -2.25,0 -4.5,1.5 -6.75,3 -8.25,8.25 -30.75,31.5 -39,51.75 -9.75,24.75 66.75,197.25 88.5,227.25 22.5,29.25 54,118.5 54,126 0,6 35.25,77.25 48.75,105 3,6 10.5,8.25 16.5,4.5 18,-11.25 54,-36.75 82.5,-77.25 39.75,-57 76.5,-96 76.5,-187.5 0,-91.5 -5.25,-229.5 9.75,-269.25 15,-39.75 36.75,-116.25 88.5,-123.75 51.75,-7.5 501,-32.25 575.25,-12 74.25,19.5 118.5,29.25 155.25,22.5 36.75,-7.5 185.25,-42 227.25,-39.75 42,2.25 301.5,26.25 363,35.25 33,4.5 102,14.25 126,4.5 21,-9 28.5,-66 84,-24.75 27,20.25 14.25,51 6.75,159.75 z"
               id="path35526"
               style="stroke-width:7.5;fill:#1c5b50;fill-opacity:0.63529414"
               inkscape:export-xdpi="96"
               inkscape:export-ydpi="96" />
            <path
               fill="#662700"
               d="m 24885.683,11148.712 c -9,59.25 -38.25,80.25 -36.75,105.75 0.75,7.5 -5.25,25.5 -15,44.25 6,7.5 10.5,15.75 12.75,24.75 11.25,46.5 -36.75,97.5 -107.25,114 -69.75,16.5 -135.75,-8.25 -146.25,-54.75 -4.5,-18 0.75,-37.5 12,-54.75 -3,-1.5 -6.75,-3 -10.5,-5.25 -27,-15.75 -103.5,15.75 -124.5,37.5 -20.25,22.5 -153.75,161.25 -229.5,207 -75.75,46.5 -287.25,161.25 -486.75,137.25 -200.25,-24 -194.25,-42.75 -248.25,-85.5 -54,-42.75 -153.75,-165.75 -81.75,-270 72,-104.25 168.75,-241.5 168.75,-241.5 0,0 -137.25,-27.75 -176.25,-40.5 -39,-12.75 -44.25,-15 -70.5,-16.5 -26.25,-1.5 -87,0.75 -88.5,-60 -1.5,-60.75 -9,-69.75 -9,-69.75 0,0 -20.25,-5.25 -26.25,-36.75 -5.25,-31.5 -24,-153.75 -20.25,-177.75 3.75,-24 57.75,-138.75 68.25,-150 11.25,-11.25 35.25,-15 42.75,0 7.5,15 24,59.25 24,59.25 0,0 24,16.5 27.75,33 3.75,16.5 1.5,122.25 7.5,135 5.25,12.75 42.75,33 48,35.25 5.25,1.5 133.5,3.75 133.5,3.75 0,0 113.25,-50.25 253.5,-51.75 l 12.75,-301.5 c 0,0 0,-74.25 44.25,-78 44.25,-3.75 111,-29.25 133.5,-29.25 22.5,0 48,-1.5 45.75,5.25 -2.25,6 81.75,-3 93.75,-5.25 12,-2.25 29.25,2.25 30.75,18.75 1.5,15.75 -12,42 -36.75,50.25 -24.75,9 -96,15 -99,18.75 -2.25,3.75 -30.75,9 -48,9.75 -17.25,1.5 -54,-17.25 -57.75,22.5 -3.75,39.75 2.25,44.25 2.25,44.25 0,0 54,-0.75 62.25,-12 8.25,-11.25 30.75,-22.5 36,-11.25 5.25,11.25 8.25,30.75 59.25,27 50.25,-3.75 111,1.5 112.5,9.75 1.5,9 -36.75,44.25 -71.25,47.25 -34.5,2.25 -170.25,11.25 -175.5,21 -5.25,9.75 -1.5,166.5 -1.5,166.5 0,0 141,57.75 83.25,162 0,0 88.5,98.25 109.5,111 20.25,12.75 220.5,54 266.25,154.5 0,0 45.75,-50.25 82.5,-70.5 -13.5,-26.25 -41.25,-94.5 -16.5,-105 0,0 19.5,-3.75 28.5,1.5 0,0 15,-18.75 21,-16.5 6,2.25 12.75,6.75 12.75,8.25 0.75,1.5 7.5,-17.25 12,-17.25 3.75,-0.75 21.75,1.5 25.5,-8.25 3.75,-9.75 9.75,-27.75 15,-30 5.25,-1.5 11.25,-3 24.75,6.75 14.25,9.75 42.75,27.75 63,14.25 0,0 6.75,-5.25 34.5,-4.5 28.5,0.75 99.75,24 122.25,39.75 22.5,15.75 46.5,52.5 50.25,85.5 0.75,10.5 1.5,18 1.5,23.25 0,8.25 0,13.5 -0.75,19.5 z"
               id="path35528"
               style="stroke-width:7.5;fill:#1c5b50;fill-opacity:0.63529414"
               inkscape:export-xdpi="96"
               inkscape:export-ydpi="96" />
            <path
               fill="#662700"
               d="m 18693.683,11255.962 c -0.75,0 -0.75,0.75 0,0 0.75,2.25 8.25,19.5 3.75,22.5 -4.5,3.75 -10.5,6.75 -11.25,6.75 -1.5,0 9.75,12.75 8.25,15.75 -1.5,3 -9.75,15.75 -3.75,21.75 6,6 17.25,18.75 16.5,22.5 -0.75,4.5 -2.25,9.75 -15,16.5 -12.75,6.75 -37.5,21.75 -35.25,42 0,0 1.5,6.75 -10.5,27.75 -9.75,17.25 -42,51 -65.25,68.25 -9.75,9 -21.75,17.25 -37.5,22.5 -47.25,16.5 -223.5,7.5 -240,-153.75 -30.75,-12 -48,-54.75 -39,-101.25 9.75,-49.5 47.25,-84 82.5,-77.25 3.75,0.75 6.75,2.25 10.5,3.75 2.25,-11.25 0.75,-27.75 -10.5,-33 -16.5,-7.5 -96,-63 -153.75,-78 -57.75,-15 -214.5,-20.25 -244.5,-20.25 -29.25,0 -102,-33 -185.25,-64.5 -83.25,-31.5 -170.25,-55.5 -200.25,-44.25 -29.25,11.25 -93.75,9 -111.75,9 -18.75,0 -62.25,15.75 -75,-6.75 -9.75,-17.25 3,-27.75 3,-27.75 0,0 -15.75,-0.75 -30.75,0.75 -15,1.5 -48,1.5 -63,0 -15,-1.5 -79.5,-20.25 -79.5,-42.75 0,0 -170.25,126 -266.25,126 -96,0 -344.25,-15 -374.25,0 -29.25,15 -11.25,59.25 -81.75,36.75 -70.5,-22.5 -166.5,-22.5 -233.25,-22.5 -66.75,0 -63,-11.25 -55.5,-18.75 7.5,-7.5 72,-50.25 85.5,-51.75 12.75,-1.5 29.25,-9 54,-9 0,0 -35.25,-20.25 -78,-22.5 -42.75,-1.5 -126,-5.25 -141,-5.25 -15,0 -18.75,-29.25 0,-33 18.75,-3.75 114.75,-46.5 142.5,-63 27.75,-16.5 144.75,-44.25 213,-31.5 68.25,12.75 285,-15 296.25,-15 11.25,0 81.75,-55.5 141,-55.5 59.25,0 192.75,-51.75 207,-55.5 15,-3.75 255.75,-94.5 276,-96 20.25,-1.5 259.5,-27.75 468.75,-26.25 209.25,1.5 277.5,0 277.5,0 0,0 68.25,35.25 98.25,61.5 29.25,26.25 129,31.5 165,92.25 39.75,68.25 55.5,209.25 46.5,234.75 -9,24.75 35.25,81.75 40.5,92.25 5.25,11.25 27.75,42.75 35.25,48 7.5,5.25 51.75,44.25 57.75,68.25 5.25,24 12.75,48 22.5,54 6.75,3.75 22.5,9 40.5,12.75 25.5,0 63,4.5 61.5,26.25 0,2.25 -5.25,18 -12,22.5 z m -683.25,-398.25 c -22.5,-6 -49.5,-13.5 -77.25,-11.25 -36.75,3.75 -75.75,-7.5 -75.75,0 -0.75,9.75 63,35.25 79.5,40.5 11.25,3.75 49.5,-8.25 73.5,-16.5 6.75,-2.25 6,-11.25 0,-12.75 z"
               id="path35530"
               style="stroke-width:7.5;fill:#1c5b50;fill-opacity:0.63529414"
               inkscape:export-xdpi="96"
               inkscape:export-ydpi="96" />
            <path
               fill="#662700"
               d="m 21498.683,8137.4618 c -60,60 -279,197.25 -338.25,200.25 -59.25,2.25 -158.25,19.5 -158.25,19.5 0,0 15.75,327 26.25,357 11.25,29.25 51.75,102 -5.25,168.75 -57.75,66.75 -126,120 -166.5,147.75 -40.5,27.75 -60.75,39.75 -59.25,62.25 0,0 0.75,263.2501 -16.5,294.7501 -17.25,31.5 -35.25,87.75 -54.75,84 -19.5,-3.75 -57,-66 -57,-66 0,0 -57,0 -64.5,24.75 -7.5,24.75 -44.25,77.25 -111,41.25 -66.75,-36 -135.75,-105 -145.5,-156.75 -2.25,-10.5 -4.5,-30 -5.25,-50.25 -3,-2.25 -6,-4.5 -9,-6.75 -33,-30.75 -28.5,-90 10.5,-132 39,-42.0001 97.5,-51.0001 130.5,-20.2501 3.75,3.7501 7.5,8.2501 10.5,12.7501 3,0 5.25,-0.75 8.25,-0.75 111,-7.5 24.75,-189.7501 57,-217.5001 32.25,-27 103.5,-93.75 126,-147.75 22.5,-54 47.25,-256.5 7.5,-323.25 -39.75,-66.75 -130.5,-242.25 9.75,-340.5 0,0 -39.75,17.25 -86.25,-27 -47.25,-44.25 -81.75,-74.25 -96,-81.75 -15,-7.5 -19.5,-36.75 2.25,-39.75 22.5,-2.25 -5.25,-15 24.75,-19.5 29.25,-5.25 88.5,-9.75 138,0 49.5,9.75 172.5,-17.25 200.25,-17.25 27,0 466.5,-12 535.5,0 69,12 93.75,47.25 103.5,86.25 9.75,39 9.75,120 -17.25,147.75 z"
               id="path35532"
               style="stroke-width:7.5;fill:#1c5b50;fill-opacity:0.63529414"
               inkscape:export-xdpi="96"
               inkscape:export-ydpi="96" />
            <path
               fill="#662700"
               d="m 51994.901,8184.7998 c 0,0 -157.5,-21 -195,-66 -37.5,-45.75 -54,-66 -33,-157.5 0,0 -66,-33 -178.5,-70.5 -111.75,-37.5 -228,-62.25 -340.5,-91.5 -111.75,-29.25 -338.25,-56.25 -366.75,-56.25 0,0 -143.25,81 -163.5,137.25 -21,56.25 -45.75,118.5 -60,99.75 -14.25,-18.75 -16.5,-75 -14.25,-81 2.25,-6 -24,-84.75 -0.75,-114 23.25,-29.25 38.25,-78.75 42,-111.75 4.5,-33 -6,-78.75 24.75,-78.75 30.75,0 87,27 97.5,37.5 10.5,10.5 417,0 507,24.75 90,24.75 471.75,29.25 471.75,29.25 0,0 21,-162 29.25,-174 8.25,-12.75 -87,-54 -97.5,-76.5 -10.5,-22.5 -2.25,-37.5 16.5,-27 15.75,8.25 12.75,-30.75 22.5,-24.75 4.5,2.25 20.25,16.5 27,22.5 9,8.25 9.75,4.5 16.5,-5.25 9,-14.25 25.5,-35.25 30.75,-22.5 3,6.75 10.5,19.5 13.5,26.25 3.75,9.75 17.25,10.5 22.5,1.5 11.25,-21 26.25,-45.75 31.5,-27.75 4.5,16.5 12.75,37.5 18,52.5 3.75,10.5 15,15.75 25.5,13.5 25.5,-6 68.25,-18.75 78.75,-18.75 39.75,0 44.25,19.5 29.25,27 -28.5,13.5 -108,49.5 -116.25,64.5 -8.25,15 -30.75,147 -30.75,159.75 0,12.75 103.5,30.75 155.25,30.75 41.25,0 159,-5.25 207,-7.5 12,-0.75 21,-10.5 21,-22.5 v -123.75 c 0,-9 -3.75,-17.25 -9.75,-23.25 -21,-21 -69.75,-69.75 -71.25,-86.25 -2.25,-21 -2.25,-37.5 -2.25,-37.5 0,0 21,-4.5 30.75,14.25 10.5,18.75 30.75,37.5 41.25,33 10.5,-4.5 21,-57.75 29.25,-66 8.25,-8.25 27.75,-3 29.25,21 2.25,30 22.5,22.5 22.5,22.5 0,0 6,-45.75 16.5,-39.75 5.25,3 11.25,13.5 15,21.75 3,6 10.5,6.75 15,2.25 8.25,-9 19.5,-19.5 26.25,-13.5 10.5,10.5 16.5,29.25 10.5,35.25 -6,6 43.5,-18.75 60,-18.75 16.5,0 21,22.5 -18.75,41.25 -30.75,15 -67.5,51 -81,66 -3.75,3.75 -6,9.75 -5.25,15 l 9,139.5 c 0.75,8.25 8.25,15 16.5,14.25 72.75,-5.25 375.75,-27 412.5,-17.25 41.25,11.25 414.75,-36 453.75,-21.75 0,0 159,-63 175.5,-18.75 16.5,44.25 19.5,124.5 19.5,133.5 0,9 34.5,73.5 31.5,103.5 -3,30.75 -6.75,67.5 -15,78.75 -8.25,11.25 -4.5,59.25 -9.75,73.5 -5.25,13.5 -41.25,-13.5 -44.25,-44.25 -3,-30.75 -20.25,-66.75 -21.75,-80.25 -4.5,-29.25 -42,-72.75 -63.75,-102.75 -9.75,-13.5 -26.25,-21.75 -43.5,-20.25 -76.5,4.5 -278.25,18 -360,29.25 -102,13.5 -98.25,39 -192,47.25 -87.75,7.5 -345.75,73.5 -345.75,73.5 0,0 29.25,162 -21,192 -49.5,30.75 -168.75,63.75 -168.75,63.75 0,0 3,27.75 11.25,49.5 8.25,21.75 52.5,77.2501 8.25,165.7501 -44.25,88.5 -93.75,124.5 -127.5,110.25 -33,-13.5 -154.5,-74.25 -163.5,-150.75 -9,-75 5.25,-88.5001 39.75,-174.7501 z"
               id="path35611"
               style="stroke-width:7.5;fill:#1c5b50;fill-opacity:0.63529414"
               inkscape:export-xdpi="96"
               inkscape:export-ydpi="96" />
            <path
               fill="#662700"
               d="m 56217.401,8583.0499 c -9.75,11.25 -23.25,21.75 -40.5,27 -45.75,14.25 -228,30.75 -279.75,24.75 -51.75,-6 -270,18.75 -317.25,8.25 -48,-10.5 -157.5,-29.25 -224.25,-22.5 -66,6 -234,33 -271.5,22.5 -36.75,-10.5 -36.75,80.25 -32.25,105 0.75,-3 2.25,-5.25 3.75,-6 0,0 83.25,-42.75 94.5,-9 0,0 1.5,18 -3.75,26.25 0,0 16.5,15 13.5,21 -3,5.25 -7.5,11.25 -9,11.25 -1.5,0 15,8.25 15,12 0,3.75 -3,19.5 5.25,24 8.25,3.75 24.75,11.25 26.25,15.75 0.75,4.5 2.25,10.5 -7.5,22.5 -9.75,12 -29.25,37.5 -18,57 0,0 4.5,6 1.5,32.25 -3,25.5 -30,90 -45.75,108.75 -16.5,19.5 -51.75,39 -82.5,39 -5.25,0 -9.75,0 -13.5,0 -0.75,0 -0.75,0 -0.75,0 -63.75,3.75 -168.75,-53.25 -194.25,-120 -18.75,9.75 -39,11.25 -55.5,3.75 -39,-18 -48.75,-79.5 -21.75,-137.25 27,-58.5 79.5,-90.75 118.5,-72.75 8.25,3.75 15,9.75 21,17.25 4.5,-46.5 11.25,-129 5.25,-141.75 -8.25,-18 -126,-117.75 -18,-250.5 108,-132.7501 249,-270.0001 273.75,-311.2501 24.75,-41.25 -30.75,-211.5 -4.5,-270 29.25,-64.5 120,-91.5 120,-128.25 0,-30.75 -15.75,-123 -9,-189 2.25,-20.25 -23.25,-38.25 -42.75,-41.25 -50.25,-7.5 -133.5,-21 -173.25,-34.5 -57.75,-19.5 -160.5,-3 -168.75,13.5 -8.25,16.5 -52.5,44.25 -85.5,13.5 -33,-30.75 -66,-63.75 -110.25,-84 -44.25,-21 -129.75,-65.25 -127.5,-81.75 3,-16.5 8.25,-36 -16.5,-52.5 -24.75,-16.5 -41.25,-27.75 69,-16.5 110.25,11.25 177,21.75 196.5,36 19.5,13.5 5.25,2.25 60,9 78,9.75 271.5,-58.5 351.75,-72.75 80.25,-13.5 174,-43.5 213,-2.25 38.25,41.25 99.75,157.5 94.5,283.5 0,1.5 0,2.25 0,3.75 3,21 31.5,222.75 2.25,306.75 -30.75,88.5 -42,213 -52.5,257.25 -11.25,44.25 -93.75,207.75 -138,252.0001 -44.25,44.25 36,129.75 -44.25,174 0,0 198.75,24.75 224.25,24.75 24.75,0 241.5,18.75 280.5,33 39.75,14.25 108,27 132.75,18.75 24.75,-8.25 145.5,-54 168,-39.75 22.5,14.25 54,41.25 75,41.25 7.5,0 18,0 28.5,0.75 16.5,1.5 26.25,24 14.25,37.5 z"
               id="path35613"
               style="stroke-width:7.5;fill:#1c5b50;fill-opacity:0.63529414"
               inkscape:export-xdpi="96"
               inkscape:export-ydpi="96" />
            <path
               fill="#662700"
               d="m 56299.151,12462.05 c 0,46.5 -51.75,213.75 -61.5,76.5 -4.5,-60.75 -69,-52.5 -108,-55.5 -39,-3 -315.75,3 -371.25,41.25 -54.75,39 -207,213 -207,213 l -44.25,97.5 c 0,0 50.25,39 84,-3 12,-14.25 29.25,-21 39.75,-11.25 0,0 9.75,14.25 9,22.5 0,0 20.25,5.25 20.25,10.5 0,4.5 -0.75,9.75 -1.5,12 0,0.75 0.75,0.75 0.75,1.5 3.75,0 15,0 16.5,3 1.5,3 6.75,17.25 15,16.5 8.25,-0.75 25.5,-2.25 28.5,1.5 3,3 6,7.5 3.75,21.75 -2.25,14.25 -6.75,43.5 11.25,54 0,0 6.75,3 15.75,25.5 9,22.5 16.5,86.25 12,108.75 -4.5,23.25 -24,54.75 -48.75,69 -12,6.75 -117.75,76.5 -195,72 -26.25,14.25 -68.25,9 -105.75,-15 -48,-31.5 -69.75,-82.5 -48.75,-114 11.25,-17.25 32.25,-24.75 57,-24 0,-39 3.75,-74.25 -21,-105 -33,-40.5 -72,-8.25 -105,-21.75 -33,-13.5 -531,-154.5 -558.75,-345.75 0,0 5.25,-19.5 -11.25,-47.25 -16.5,-27.75 -188.25,-270.75 30.75,-323.25 0,0 -33,-24 -110.25,-81.75 -77.25,-57.75 -202.5,-89.25 -199.5,-100.5 9.75,-33.75 0.75,-53.25 128.25,-42 127.5,11.25 220.5,23.25 253.5,42 33,19.5 144,30.75 163.5,24.75 19.5,-5.25 354,-41.25 434.25,-30.75 80.25,11.25 132.75,60.75 132.75,144 0,0 102,-30.75 168.75,-30.75 66,0 185.25,8.25 246,13.5 60.75,5.25 138,19.5 185.25,3 47.25,-16.5 134.25,-23.25 119.25,44.25 -24,100.5 21.75,233.25 21.75,233.25 z m -246.75,-153.75 c 0,0 -157.5,6 -186.75,14.25 -29.25,8.25 -222,12.75 -259.5,30.75 -37.5,18.75 -128.25,54 -170.25,54 -42,0 -122.25,21 -159.75,30.75 -37.5,10.5 -147,29.25 -155.25,30.75 -8.25,2.25 -33,30.75 30.75,27 64.5,-4.5 195,103.5 195,103.5 0,0 153.75,-87 261,-155.25 108,-68.25 93,-51.75 132.75,-60 39.75,-8.25 232.5,2.25 298.5,2.25 66,0 105.75,4.5 103.5,-14.25 -0.75,-18 -90,-63.75 -90,-63.75 z"
               id="path35615"
               style="stroke-width:7.5;fill:#1c5b50;fill-opacity:0.63529414"
               inkscape:export-xdpi="96"
               inkscape:export-ydpi="96" />
            <path
               fill="#662700"
               d="m 53041.901,12055.55 c -39.75,21 -137.25,62.25 -149.25,62.25 0,0 57.75,10.5 51.75,22.5 -6,12.75 -33,18.75 -95.25,27 -62.25,8.25 -76.5,-8.25 -122.25,18.75 -45.75,27 -265.5,186.75 -276,198.75 -10.5,12.75 -29.25,45.75 -91.5,76.5 -62.25,30.75 -243,174 -263.25,213.75 -21,39.75 -114,137.25 -103.5,157.5 10.5,21 76.5,2.25 155.25,-35.25 105.75,-49.5 315,-102.75 319.5,-103.5 34.5,-6 75,-18 144.75,-45.75 38.25,-15 155.25,-77.25 195,-66 10.5,3 -24,39 0.75,47.25 18.75,6 92.25,-10.5 126,-18.75 12,-3 24,6.75 22.5,18.75 -3,24 -22.5,57.75 -81.75,60.75 -45,1.5 -120,12 -191.25,12 -102.75,0 -282,85.5 -350.25,135 0,0 -38.25,21 -14.25,27 48,12 112.5,-3 132.75,46.5 21,49.5 51.75,119.25 -21,210.75 -16.5,21 -34.5,36.75 -54,48 0,2.25 -0.75,4.5 -0.75,6.75 -9,42 -66.75,64.5 -129.75,51 -63,-13.5 -105.75,-57.75 -97.5,-99.75 1.5,-6 3.75,-12 7.5,-17.25 -51,-44.25 -105.75,-68.25 -123.75,-68.25 -22.5,0 -130.5,41.25 -203.25,37.5 -72.75,-4.5 -236.25,-24.75 -340.5,-68.25 -103.5,-43.5 -384,-207.75 -400.5,-377.25 -16.5,-170.25 29.25,-213.75 57.75,-240.75 28.5,-27 57.75,-60 126.75,-68.25 68.25,-8.25 306.75,0 306.75,0 0,0 4.5,-43.5 35.25,-37.5 30.75,6 76.5,35.25 105.75,54 29.25,18.75 162,30.75 182.25,68.25 21,37.5 48,105.75 -12.75,147 -60,41.25 -60,41.25 -60,41.25 0,0 29.25,4.5 41.25,37.5 0,0 18.75,18.75 37.5,4.5 18.75,-14.25 180.75,-151.5 219.75,-174 39.75,-22.5 62.25,-95.25 114,-122.25 51.75,-27 201,-114 213.75,-120 12.75,-6 203.25,-137.25 224.25,-138.75 21,-2.25 132.75,-108 145.5,-111.75 12.75,-4.5 35.25,6 35.25,18.75 0,12.75 41.25,0 57.75,-4.5 16.5,-4.5 89.25,-6 105.75,8.25 17.25,14.25 57,39 17.25,60 z"
               id="path35617"
               style="stroke-width:7.5;fill:#1c5b50;fill-opacity:0.63529414"
               inkscape:export-xdpi="96"
               inkscape:export-ydpi="96" />
            <path
               fill="#662700"
               d="m 49478.651,12605.3 c -7.5,20.25 -15.75,39 -22.5,54.75 -8.25,18 -30.75,23.25 -46.5,11.25 -18.75,-15 -39,-35.25 -43.5,-57.75 -8.25,-41.25 -90,-24.75 -195,5.25 -105,30.75 -276.75,75 -334.5,96.75 -57.75,21.75 -207.75,109.5 -210,120 -3,11.25 -1.5,27 18,33 0,0 13.5,3.75 36,14.25 0,-1.5 0,-3 0.75,-3.75 0,0 54,-79.5 80.25,-54.75 0,0 10.5,15.75 9.75,25.5 0,0 21.75,6 21.75,12 0,6 -1.5,13.5 -2.25,14.25 -0.75,0.75 17.25,0.75 19.5,3.75 1.5,3 6.75,19.5 16.5,18.75 9.75,-0.75 27.75,-2.25 31.5,1.5 3,3.75 6.75,8.25 3.75,24 -3,15.75 -7.5,47.25 11.25,60 0,0 6.75,3.75 16.5,27.75 9.75,24.75 17.25,95.25 12,120 -5.25,24 -25.5,55.5 -50.25,72 -27.75,30.75 -63,51 -94.5,51 -33.75,0 -105.75,26.25 -160.5,13.5 -34.5,22.5 -91.5,0.75 -128.25,-49.5 -37.5,-51.75 -40.5,-114 -6,-138.75 17.25,-12.75 41.25,-13.5 65.25,-4.5 0.75,-60 -1.5,-114 -33,-112.5 -28.5,1.5 -442.5,26.25 -588,-198 -145.5,-224.25 -255.75,-377.25 -120,-543.75 75,-92.25 235.5,-120.75 344.25,-145.5 141,-30.75 128.25,110.25 120,135 -8.25,24.75 128.25,60 244.5,64.5 116.25,4.5 543.75,-4.5 580.5,-4.5 0,0 224.25,37.5 273.75,29.25 49.5,-8.25 91.5,16.5 87,70.5 -4.5,54 8.25,111.75 21,132.75 12.75,23.25 37.5,56.25 21,102 z m -147.75,-137.25 c -6.75,-24.75 -108,-48.75 -180,-51 -72,-3 -124.5,9.75 -149.25,19.5 -24.75,9.75 -214.5,11.25 -264,16.5 -49.5,5.25 -163.5,36 -279,57.75 -116.25,21.75 -83.25,44.25 -83.25,44.25 81,9 110.25,146.25 110.25,146.25 27,37.5 143.25,-42 185.25,-60.75 54,-24.75 244.5,-93.75 278.25,-103.5 3,-0.75 6.75,-1.5 9.75,-2.25 39.75,-6 300.75,-43.5 337.5,-40.5 41.25,3 41.25,-0.75 34.5,-26.25 z"
               id="path35619"
               style="stroke-width:7.5;fill:#1c5b50;fill-opacity:0.63529414"
               inkscape:export-xdpi="96"
               inkscape:export-ydpi="96" />
            <path
               fill="#662700"
               d="m 49892.651,10269.05 c -19.5,24.75 -52.5,96.75 -60.75,52.5 -8.25,-44.25 0,-116.25 -13.5,-165.75 -13.5,-49.5 -30.75,-85.5 -77.25,-80.25 -47.25,5.25 -261,33 -435.75,87 -36.75,11.25 -243.75,110.25 -321,135 -20.25,6.75 -145.5,39.75 -213.75,89.25 -68.25,49.5 -109.5,128.25 -191.25,175.5 0,0 -198.75,110.25 -232.5,146.25 -26.25,28.5 -84.75,37.5 -123,30.75 -13.5,-2.25 -25.5,7.5 -25.5,21 0.75,18.75 -6,47.25 -7.5,58.5 -0.75,3 0,6.75 0.75,10.5 12,-3 24,-2.25 34.5,2.25 34.5,15.75 42.75,70.5 19.5,122.25 -24,51.75 -70.5,81 -105,64.5 -3.75,-1.5 -7.5,-4.5 -11.25,-7.5 -24,14.25 -51,15 -84,11.25 -18,-2.25 -48.75,-11.25 -61.5,-17.25 -21.75,-10.5 -62.25,-71.25 -66.75,-90 -5.25,-18.75 -1.5,-72.75 5.25,-91.5 6.75,-18.75 12,-21.75 12,-21.75 14.25,-9.75 9.75,-33.75 6.75,-45.75 -3,-12 0,-15.75 2.25,-18.75 2.25,-3 16.5,-2.25 24,-2.25 7.5,0 10.5,-12 12,-15 1.5,-2.25 15.75,-3 14.25,-3.75 -0.75,-0.75 -2.25,-6 -2.25,-10.5 0,-4.5 16.5,-9.75 16.5,-9.75 -0.75,-7.5 6,-19.5 6,-19.5 19.5,-19.5 63,39 63,39 0,0 0,0.75 0,0.75 0.75,0 1.5,0 1.5,0 8.25,-1.5 13.5,-21.75 13.5,-47.25 0,-24.75 -141,-160.5 -229.5,-198.75 -88.5,-39 -99.75,-27.75 -121.5,-36 -21.75,-8.25 -171.75,-91.5 -193.5,-99.75 -21.75,-8.25 -160.5,-5.25 -180,0 -19.5,5.25 -47.25,41.25 -57.75,52.5 -11.25,11.25 -33,-60.75 -19.5,-99.75 13.5,-39 36,-85.5 36,-102 0,-16.5 -21.75,-113.25 19.5,-110.25 41.25,3 88.5,21.75 102,21.75 13.5,0 397.5,-43.5 502.5,3.75 2.25,0.75 4.5,1.5 7.5,1.5 23.25,1.5 151.5,7.5 237,0 93.75,-8.25 498,-8.25 522.75,-5.25 24.75,3 306,-84.75 439.5,-80.25 121.5,3.75 520.5,-54.7501 600,-93.7501 58.5,-28.5 147.75,-84 156,-3.75 8.25,80.25 6.75,252.0001 9.75,266.2501 3,15 -11.25,58.5 -30,84 z m -1694.25,17.25 -239.25,-51.75 c -4.5,-0.75 -8.25,-1.5 -12.75,-2.25 -36,-3.75 -213,-21 -244.5,-24 -168.75,-16.5 -219,26.25 -216.75,32.25 6,18.75 163.5,45 186,50.25 36.75,8.25 186.75,57 240.75,84 36.75,18 118.5,63.75 171.75,92.25 40.5,22.5 92.25,-0.75 99.75,-46.5 0,-0.75 0,-0.75 0,-1.5 3.75,-24 19.5,-49.5 36.75,-70.5 18.75,-21.75 6.75,-56.25 -21.75,-62.25 z"
               id="path35621"
               style="stroke-width:7.5;fill:#1c5b50;fill-opacity:0.63529414"
               inkscape:export-xdpi="96"
               inkscape:export-ydpi="96" />
            <path
               fill="#662700"
               d="m 56611.151,9942.7999 c -8.25,27 -47.25,75.0001 -66.75,87.7501 -19.5,12.75 -81,30.75 -105,31.5 -24,0.75 -29.25,-4.5 -29.25,-4.5 -17.25,-12 -42,3 -54,10.5 -12,7.5 -17.25,6.75 -21.75,5.25 -4.5,-1.5 -9.75,-17.25 -12,-25.5 -3,-8.25 -18,-6.75 -21,-7.5 -3.75,-0.75 -9,-15.75 -9.75,-15 -0.75,1.5 -6,5.25 -11.25,6.75 -5.25,2.25 -17.25,-14.25 -17.25,-14.25 -7.5,4.5 -24,0.75 -24,0.75 -30,-14.25 18,-86.2501 18,-86.2501 0,0 0.75,-0.75 0.75,-0.75 -3,-9 -12,-15.75 -23.25,-14.25 -4.5,0.75 -9,1.5 -12.75,3.75 -19.5,10.5 -69.75,59.25 -55.5,366.0001 0,6.75 1.5,14.25 3.75,20.25 63.75,201.75 78,423.75 73.5,447.75 -6,33.75 -3.75,75 -0.75,104.25 1.5,17.25 18,29.25 35.25,26.25 13.5,-2.25 28.5,-3 36,3.75 16.5,14.25 -8.25,43.5 -64.5,68.25 -56.25,24.75 -132.75,43.5 -162,64.5 -29.25,21 -116.25,57.75 -126.75,16.5 -10.5,-41.25 -14.25,-68.25 -29.25,-78.75 -14.25,-10.5 -211.5,-219.75 -236.25,-257.25 -24.75,-37.5 -64.5,-87 -84.75,-207.75 -19.5,-113.25 -218.25,-260.25 -298.5,-411.75 -9,-17.25 -27,-29.25 -46.5,-30.75 -87.75,-5.25 -323.25,-22.5 -388.5,-51 -73.5,12 -114,-11.2501 -165.75,-45.7501 -53.25,-35.25 -406.5,-41.25 -435.75,-16.5 -29.25,24.75 -16.5,102.0001 -16.5,128.2501 0,27 10.5,84.75 10.5,84.75 17.25,27 1.5,67.5 -30.75,8.25 0,0 -14.25,-39.75 -30.75,-56.25 -16.5,-16.5 -30.75,-81 -30.75,-118.5001 0,-37.5 -51.75,-98.25 -45.75,-116.25 9,-26.25 27.75,-44.25 72.75,-29.25 39.75,13.5 207.75,-16.5 244.5,-24.75 37.5,-8.25 217.5,-16.5 251.25,0 33,16.5 360.75,27.75 473.25,4.5 0,0 85.5,-95.25 149.25,-100.5 54.75,-4.5 612,-6.75 761.25,-9.75 19.5,0 37.5,8.25 50.25,22.5 12,13.5 36,19.5 63.75,19.5 49.5,-0.75 73.5,-9.75 106.5,-29.25 0.75,-0.75 1.5,-0.75 2.25,-1.5 0,-3 0,-6 0.75,-9 7.5,-42 64.5,-66.75 127.5,-55.5 51.75,9 91.5,39.75 99.75,73.5 46.5,36.75 94.5,154.5 76.5,213 z m -527.25,552.7501 c -31.5,-25.5 -51.75,-384 -49.5,-429 2.25,-45.75 10.5,-81.0001 -48,-39.75 -57.75,41.25 -149.25,-12.75 -149.25,-12.75 0,0 -123.75,-9 -170.25,-29.2501 -48.75,-21 -93.75,-10.5 -105.75,0 -13.5,12 83.25,205.5001 128.25,278.2501 45.75,72.75 57.75,162 66,207.75 8.25,45.75 168,279.75 168,279.75 0,0 111.75,138.75 124.5,151.5 5.25,5.25 19.5,6 34.5,5.25 24.75,-0.75 44.25,-20.25 45.75,-45 3,-54.75 23.25,-110.25 23.25,-128.25 -1.5,-72.75 -50.25,-224.25 -67.5,-238.5 z"
               id="path35623"
               style="stroke-width:7.5;fill:#1c5b50;fill-opacity:0.63529414" />
            <path
               fill="#662700"
               d="m 53083.901,10038.05 c -18.75,25.5 -33.75,63 -56.25,75 -22.5,12.75 -92.25,26.25 -119.25,24 -26.25,-2.25 -32.25,-7.5 -32.25,-7.5 -17.25,-15 -46.5,-0.75 -60.75,6.75 -14.25,7.5 -19.5,5.25 -24,3 -4.5,-2.25 -9,-20.25 -10.5,-29.25 -2.25,-9 -18.75,-9.75 -22.5,-10.5 -2.25,-0.75 -4.5,-6.75 -6.75,-11.25 -1.5,-1.5 -3.75,-3 -4.5,-4.5 -2.25,1.5 -6.75,3.75 -11.25,5.25 -6,1.5 -18,-18 -18,-18 -9,3.75 -27,-1.5 -27,-1.5 -18.75,-11.25 -5.25,-42 9,-65.25 -23.25,-8.2501 -47.25,-9.7501 -55.5,0 -15,18 -15,309 -26.25,358.5 0,0 36,182.25 44.25,237.75 8.25,55.5 63.75,268.5 66,276.75 3,8.25 8.25,99.75 8.25,99.75 0,0 51,-27.75 57,-3 5.25,24.75 -36.75,81.75 -95.25,95.25 -57.75,12.75 -186,114.75 -196.5,132 -12.75,21 -57,-16.5 -52.5,-60.75 4.5,-48.75 -55.5,-91.5 -55.5,-91.5 0,0 -207.75,-207.75 -229.5,-260.25 -21.75,-52.5 -74.25,-171 -110.25,-260.25 -24.75,-60.75 -129,-186.75 -183,-263.25 -16.5,-23.25 -55.5,-12.75 -72.75,9.75 -55.5,69.75 -229.5,297.75 -272.25,297.75 -44.25,0 -129.75,-63 -136.5,-133.5 -7.5,-82.5 -65.25,-374.25 -68.25,-425.25 -8.25,-120.0001 -288,-124.5001 -287.25,-201.7501 -14.25,-0.75 301.5,-22.5 360.75,1.5 27,11.25 -6,70.5 15,109.5 41.25,75 102,330.0001 116.25,329.2501 14.25,-0.75 193.5,-439.5001 270.75,-444.0001 77.25,-4.5 675,0 675,0 0,0 93.75,-7.5 158.25,21 44.25,19.5 102,9.75 135.75,3 -4.5,-12.75 -5.25,-26.25 -1.5,-39 13.5,-49.5 84.75,-73.5 159,-53.25 57.75,15.75 99.75,52.5 110.25,91.5 6.75,2.25 12.75,5.25 18,8.25 30,21.75 97.5,106.5 32.25,198.0001 z m -494.25,675.75 c -19.5,-88.5 -63.75,-229.5 -77.25,-351 -6.75,-59.25 -24,-117.75 -39.75,-161.25 -12,-33 -43.5,-57.75 -78.75,-54.75 -42,3.75 -72,-37.5 -96.75,-36 -21,1.5 -105.75,1.5 -165.75,0.75 -27,0 -44.25,27 -33.75,51.75 53.25,117.75 136.5,358.5 155.25,426 21.75,80.25 224.25,373.5 243,403.5 10.5,15.75 42,15 70.5,10.5 23.25,-3.75 39.75,-24 37.5,-48 -5.25,-58.5 0,-176.25 -14.25,-241.5 z"
               id="path35625"
               style="stroke-width:7.5;fill:#1c5b50;fill-opacity:0.63529414"
               inkscape:export-xdpi="96"
               inkscape:export-ydpi="96" />
            <path
               fill="#662700"
               d="m 49916.651,7660.5498 c -5.25,80.25 15.75,104.25 14.25,132 -1.5,27.75 -34.5,96.75 -48,121.5 -13.5,24.75 -45.75,-8.25 -42.75,-36 3,-27.75 -13.5,-108 -27.75,-113.25 -13.5,-5.25 -141,-51 -157.5,-62.25 -16.5,-11.25 -95.25,-21 -126,-21 -30.75,0 -117.75,31.5 -136.5,36.75 -19.5,5.25 -110.25,77.25 -117.75,107.25 -13.5,52.5 -59.25,156 -92.25,183.75 -10.5,9 32.25,42.75 70.5,51 9,2.25 40.5,-3.75 77.25,-5.25 -6,-20.25 -5.25,-39 5.25,-54.75 23.25,-36 85.5,-36 139.5,-0.75 53.25,35.25 78,92.25 54.75,128.25 -0.75,0.75 -1.5,2.25 -2.25,3 59.25,82.5 -10.5,195.7501 -15.75,206.2501 -12,28.5 -43.5,54 -67.5,61.5 -24,8.25 -93,8.25 -118.5,1.5 -24.75,-6.75 -29.25,-13.5 -29.25,-13.5 -14.25,-17.25 -44.25,-9 -59.25,-4.5 -15,4.5 -19.5,1.5 -24,-1.5 -3.75,-3 -4.5,-21 -5.25,-30 0,-9 -16.5,-12.75 -20.25,-13.5 -3.75,-1.5 -5.25,-19.5 -6,-18.75 -0.75,0.75 -7.5,3 -13.5,3.75 -6,0.75 -14.25,-20.25 -14.25,-20.25 -9.75,2.25 -25.5,-6.75 -25.5,-6.75 -23.25,-20.25 27,-68.2501 40.5,-81.0001 0.75,-2.25 0.75,-3.75 0.75,-3.75 0,0 -77.25,-1.5 -81.75,-1.5 -4.5,0 -8.25,66.0001 -15,93.0001 -6.75,26.25 93.75,332.25 96,345 2.25,12.75 194.25,324.75 225.75,339.75 0,0 154.5,52.5 138,87.75 -19.5,42 82.5,120 78,130.5 -9,21 -84.75,-26.25 -120,-39 -8.25,-3 -16.5,-8.25 -22.5,-15 l -123,-114.75 c 0,0 -216,-279 -246.75,-331.5 -30.75,-51.75 -136.5,-290.25 -137.25,-306.75 0,-32.25 -30.75,-84.75 -114,-103.5 -87.75,-20.2501 -294.75,-219.7501 -327.75,-323.2501 -23.25,-73.5 -285,-120 -325.5,-126.75 -24,-3.75 -81,-8.25 -124.5,-57.75 -59.25,-67.5 -659.25,-119.25 -630.75,-75 0,0 -93,72.75 -102,145.5 -8.25,72.75 -24.75,145.5 -43.5,102 -18.75,-43.5 -22.5,-120 -12.75,-170.25 10.5,-49.5 -17.25,-143.25 -5.25,-159.75 12,-16.5 4.5,-73.5 66,-41.25 80.25,42 480,13.5 543.75,22.5 173.25,24.75 567,15.75 593.25,16.5 93.75,3.75 178.5,-8.25 247.5,-6 68.25,2.25 389.25,-33.75 435,-37.5 45.75,-3.75 189.75,-45 194.25,-43.5 4.5,1.5 21,-15.75 60,-15.75 39,0 74.25,-3.75 89.25,3.75 15,6.75 283.5,9 297,9 13.5,0 119.25,-66 131.25,18.75 4.5,19.5 -9.75,24.75 -15.75,105 z m -770.25,106.5 -107.25,41.25 c -12,2.25 1.5,37.5 12.75,42.75 -0.75,6 47.25,-17.25 60.75,-41.25 7.5,-7.5 44.25,-45 33.75,-42.75 z"
               id="path35627"
               style="stroke-width:7.5;fill:#1c5b50;fill-opacity:0.63529414"
               inkscape:export-xdpi="96"
               inkscape:export-ydpi="96" />
            <g
               id="Layer_2"
               transform="matrix(7.7145997,0,0,-9.4098593,42418.567,972.93676)">
              <g
                 id="g35707"
                 style="fill:#008080"
                 inkscape:export-xdpi="96"
                 inkscape:export-ydpi="96">
                <rect
                   x="1013"
                   y="65"
                   fill-rule="evenodd"
                   clip-rule="evenodd"
                   fill="#ffffff"
                   width="4"
                   height="141"
                   id="rect35698"
                   style="fill:#008080" />
                <linearGradient
                   id="linearGradient35937"
                   gradientUnits="userSpaceOnUse"
                   x1="920.04468"
                   y1="129.3763"
                   x2="1016.2737"
                   y2="73.818398">
                  <stop
                     offset="0"
                     style="stop-color:#FF8F73"
                     id="stop35933" />
                  <stop
                     offset="1"
                     style="stop-color:#EF7FC1"
                     id="stop35935" />
                </linearGradient>
                <path
                   fill-rule="evenodd"
                   clip-rule="evenodd"
                   fill="url(#SVGID_2_)"
                   d="m 1013,68.2 c -28.4,0 -54.2,-15.8 -85.3,0 0,18.5 -1.9,36.7 -11.8,54.1 60.8,-21.2 64.7,6.7 97.1,10.1 -3.8,-22.3 -4.1,-43.7 0,-64.2 z"
                   id="path35705"
                   style="fill:#9b8080;fill-opacity:0.98823529" />
              </g>
              <g
                 id="g35826"
                 inkscape:export-xdpi="96"
                 inkscape:export-ydpi="96">
                <g
                   id="g35723">
                  <linearGradient
                     id="linearGradient35945"
                     gradientUnits="userSpaceOnUse"
                     x1="597.31671"
                     y1="428"
                     x2="597.31671"
                     y2="252.0937">
                    <stop
                       offset="0"
                       style="stop-color:#BF7245"
                       id="stop35941" />
                    <stop
                       offset="1"
                       style="stop-color:#BDD18A"
                       id="stop35943" />
                  </linearGradient>
                  <path
                     fill-rule="evenodd"
                     clip-rule="evenodd"
                     fill="url(#SVGID_3_)"
                     d="m 563.5,428 c 3,-49 8.2,-85.3 18.4,-89.2 1.1,-37.7 1.9,-78.2 14,-86.1 8.3,-5.4 14.6,26.3 14.2,59.3 16.3,2.2 17.7,66 20.9,116 z"
                     id="path35714"
                     style="fill:url(#SVGID_3_)" />
                  <linearGradient
                     id="linearGradient35952"
                     gradientUnits="userSpaceOnUse"
                     x1="612.1723"
                     y1="428"
                     x2="612.1723"
                     y2="252.0937">
                    <stop
                       offset="0"
                       style="stop-color:#DB8553"
                       id="stop35948" />
                    <stop
                       offset="1"
                       style="stop-color:#DFFFAB"
                       id="stop35950" />
                  </linearGradient>
                  <path
                     fill-rule="evenodd"
                     clip-rule="evenodd"
                     fill="url(#SVGID_4_)"
                     d="m 605.9,428 c 3,-49 -6.4,-79.1 -12.6,-86.1 1,-37.7 0.1,-77.7 2.7,-89.2 8.3,-5.4 14.6,26.3 14.2,59.3 16.3,2.2 17.7,66 20.9,116 z"
                     id="path35721"
                     style="fill:url(#SVGID_4_)" />
                </g>
                <linearGradient
                   id="linearGradient35960"
                   gradientUnits="userSpaceOnUse"
                   x1="701"
                   y1="980"
                   x2="701"
                   y2="179.8736">
                  <stop
                     offset="0"
                     style="stop-color:#BF7245"
                     id="stop35956" />
                  <stop
                     offset="1"
                     style="stop-color:#FFB2DE"
                     id="stop35958" />
                </linearGradient>
                <path
                   fill-rule="evenodd"
                   clip-rule="evenodd"
                   fill="url(#SVGID_5_)"
                   d="M 508.8,423.9 992.8,221 h 31.1 L 1083,179.9 V 586.2 Z M 163,836.8 V 980 H 341.2 Z M 508.8,837.1 1239,630.2 V 980 h -95.7 z M 420,423.6 V 770.4 L 963.5,630.2 Z M 923,221 v 11.4 L 954.7,221 Z"
                   id="path35730"
                   style="fill:#9b8080;fill-opacity:0.98785424" />
                <g
                   id="g35746">
                  <linearGradient
                     id="linearGradient35967"
                     gradientUnits="userSpaceOnUse"
                     x1="368.72531"
                     y1="980"
                     x2="368.72531"
                     y2="436.83511">
                    <stop
                       offset="0"
                       style="stop-color:#BF7245"
                       id="stop35963" />
                    <stop
                       offset="1"
                       style="stop-color:#BDD18A"
                       id="stop35965" />
                  </linearGradient>
                  <path
                     fill-rule="evenodd"
                     clip-rule="evenodd"
                     fill="url(#SVGID_6_)"
                     d="m 264.6,980 c 9.3,-153 25.4,-263.7 56.9,-275.7 3.2,-116.3 5.7,-241.4 43,-265.6 25.7,-16.6 45.1,81.6 43.9,183.3 50.4,6.9 54.5,201 64.4,358 z"
                     id="path35737"
                     style="fill:url(#SVGID_6_)" />
                  <linearGradient
                     id="linearGradient35974"
                     gradientUnits="userSpaceOnUse"
                     x1="414.552"
                     y1="980"
                     x2="414.552"
                     y2="436.83511">
                    <stop
                       offset="0"
                       style="stop-color:#DB8553"
                       id="stop35970" />
                    <stop
                       offset="1"
                       style="stop-color:#DFFFAB"
                       id="stop35972" />
                  </linearGradient>
                  <path
                     fill-rule="evenodd"
                     clip-rule="evenodd"
                     fill="url(#SVGID_7_)"
                     d="m 395.1,980 c 9.3,-153 -19.8,-244.4 -38.9,-266.1 3.2,-116.3 0.2,-239.9 8.3,-275.2 25.7,-16.6 45.1,81.6 43.9,183.3 50.4,6.9 54.5,201 64.4,358 z"
                     id="path35744"
                     style="fill:url(#SVGID_7_)" />
                </g>
                <g
                   id="g35762">
                  <linearGradient
                     id="linearGradient35982"
                     gradientUnits="userSpaceOnUse"
                     x1="961.4812"
                     y1="572"
                     x2="961.4812"
                     y2="363.59381">
                    <stop
                       offset="0"
                       style="stop-color:#BF7245"
                       id="stop35978" />
                    <stop
                       offset="1"
                       style="stop-color:#BDD18A"
                       id="stop35980" />
                  </linearGradient>
                  <path
                     fill-rule="evenodd"
                     clip-rule="evenodd"
                     fill="url(#SVGID_8_)"
                     d="m 921.6,572 c 3.6,-58 9.7,-101.3 21.8,-105.8 1.3,-44.5 2.2,-92.6 16.5,-101.9 9.9,-6.4 17.3,31.5 16.8,70.4 19.3,2.6 20.9,76.3 24.6,137.3 z"
                     id="path35753"
                     style="fill:url(#SVGID_8_)" />
                  <linearGradient
                     id="linearGradient35989"
                     gradientUnits="userSpaceOnUse"
                     x1="979.03149"
                     y1="572"
                     x2="979.03149"
                     y2="363.59381">
                    <stop
                       offset="0"
                       style="stop-color:#DB8553"
                       id="stop35985" />
                    <stop
                       offset="1"
                       style="stop-color:#DFFFAB"
                       id="stop35987" />
                  </linearGradient>
                  <path
                     fill-rule="evenodd"
                     clip-rule="evenodd"
                     fill="url(#SVGID_9_)"
                     d="m 971.6,572 c 3.6,-58 -7.6,-93.9 -14.9,-102.2 1.3,-44.5 0.1,-92 3.2,-105.5 9.9,-6.4 17.3,31.5 16.8,70.4 19.3,2.6 20.9,76.3 24.6,137.3 z"
                     id="path35760"
                     style="fill:url(#SVGID_9_)" />
                </g>
                <g
                   id="g35792">
                  <linearGradient
                     id="linearGradient35997"
                     gradientUnits="userSpaceOnUse"
                     x1="653.04718"
                     y1="980"
                     x2="653.04718"
                     y2="837">
                    <stop
                       offset="0"
                       style="stop-color:#FFDBA6"
                       id="stop35993" />
                    <stop
                       offset="1"
                       style="stop-color:#FFFBD4"
                       id="stop35995" />
                  </linearGradient>
                  <polygon
                     fill-rule="evenodd"
                     clip-rule="evenodd"
                     fill="url(#SVGID_10_)"
                     points="1143.3,980 341.2,980 162.8,837 509.2,837 "
                     id="polygon35769"
                     style="fill:url(#SVGID_10_)" />
                  <linearGradient
                     id="linearGradient36004"
                     gradientUnits="userSpaceOnUse"
                     x1="701.27118"
                     y1="837"
                     x2="701.27118"
                     y2="631">
                    <stop
                       offset="0"
                       style="stop-color:#FFDBA6"
                       id="stop36000" />
                    <stop
                       offset="1"
                       style="stop-color:#FFFBD4"
                       id="stop36002" />
                  </linearGradient>
                  <polygon
                     fill-rule="evenodd"
                     clip-rule="evenodd"
                     fill="url(#SVGID_11_)"
                     points="162.8,837 509.2,837 1239.8,631 963.7,631 "
                     id="polygon35776"
                     style="fill:url(#SVGID_11_)" />
                  <linearGradient
                     id="linearGradient36011"
                     gradientUnits="userSpaceOnUse"
                     x1="829.98511"
                     y1="631"
                     x2="829.98511"
                     y2="425">
                    <stop
                       offset="0"
                       style="stop-color:#FFDBA6"
                       id="stop36007" />
                    <stop
                       offset="1"
                       style="stop-color:#FFFBD4"
                       id="stop36009" />
                  </linearGradient>
                  <polygon
                     fill-rule="evenodd"
                     clip-rule="evenodd"
                     fill="url(#SVGID_12_)"
                     points="420.2,425 509.2,425 1239.8,631 963.7,631 "
                     id="polygon35783"
                     style="fill:url(#SVGID_12_)" />
                  <linearGradient
                     id="linearGradient36018"
                     gradientUnits="userSpaceOnUse"
                     x1="751.99731"
                     y1="425"
                     x2="751.99731"
                     y2="180.4342">
                    <stop
                       offset="0"
                       style="stop-color:#FFDBA6"
                       id="stop36014" />
                    <stop
                       offset="1"
                       style="stop-color:#FFFBD4"
                       id="stop36016" />
                  </linearGradient>
                  <polygon
                     fill-rule="evenodd"
                     clip-rule="evenodd"
                     fill="url(#SVGID_13_)"
                     points="923.2,221 954.7,221 420.2,425 509.2,425 992.8,221 1023.9,221 1083.8,180.4 "
                     id="polygon35790"
                     style="fill:url(#SVGID_13_)" />
                </g>
                <g
                   id="g35808">
                  <linearGradient
                     id="linearGradient36026"
                     gradientUnits="userSpaceOnUse"
                     x1="1270.7201"
                     y1="980"
                     x2="1270.7201"
                     y2="483.82458">
                    <stop
                       offset="0"
                       style="stop-color:#BF7245"
                       id="stop36022" />
                    <stop
                       offset="1"
                       style="stop-color:#BDD18A"
                       id="stop36024" />
                  </linearGradient>
                  <path
                     fill-rule="evenodd"
                     clip-rule="evenodd"
                     fill="url(#SVGID_14_)"
                     d="m 1175.6,980 c 8.5,-140 23.2,-240.9 52,-251.8 3,-106.2 5.2,-220.5 39.3,-242.6 23.4,-15.2 41.2,74.6 40.1,167.5 46,6.3 49.8,183 58.8,327 h -190.2 z"
                     id="path35799"
                     style="fill:url(#SVGID_14_)" />
                  <linearGradient
                     id="linearGradient36033"
                     gradientUnits="userSpaceOnUse"
                     x1="1312.5748"
                     y1="980"
                     x2="1312.5748"
                     y2="483.82458">
                    <stop
                       offset="0"
                       style="stop-color:#DB8553"
                       id="stop36029" />
                    <stop
                       offset="1"
                       style="stop-color:#DFFFAB"
                       id="stop36031" />
                  </linearGradient>
                  <path
                     fill-rule="evenodd"
                     clip-rule="evenodd"
                     fill="url(#SVGID_15_)"
                     d="m 1294.8,980 c 8.5,-140 -18.1,-223.3 -35.5,-243.1 3,-106.2 0.2,-219.1 7.6,-251.4 23.4,-15.2 41.2,74.6 40.1,167.5 46,6.3 49.8,183 58.8,327 z"
                     id="path35806"
                     style="fill:url(#SVGID_15_)" />
                </g>
                <g
                   id="g35824">
                  <linearGradient
                     id="linearGradient36041"
                     gradientUnits="userSpaceOnUse"
                     x1="165.99561"
                     y1="980"
                     x2="165.99561"
                     y2="617.65082">
                    <stop
                       offset="0"
                       style="stop-color:#BF7245"
                       id="stop36037" />
                    <stop
                       offset="1"
                       style="stop-color:#BDD18A"
                       id="stop36039" />
                  </linearGradient>
                  <path
                     fill-rule="evenodd"
                     clip-rule="evenodd"
                     fill="url(#SVGID_16_)"
                     d="m 96.5,980 c 6.2,-102 16.9,-176 38,-183.9 2.2,-77.6 3.8,-161.1 28.7,-177.2 17.1,-11.1 30.1,54.5 29.3,122.3 33.6,4.6 36.3,132.8 42.9,238.8 z"
                     id="path35815"
                     style="fill:url(#SVGID_16_)" />
                  <linearGradient
                     id="linearGradient36048"
                     gradientUnits="userSpaceOnUse"
                     x1="196.5468"
                     y1="980"
                     x2="196.5468"
                     y2="617.65082">
                    <stop
                       offset="0"
                       style="stop-color:#DB8553"
                       id="stop36044" />
                    <stop
                       offset="1"
                       style="stop-color:#DFFFAB"
                       id="stop36046" />
                  </linearGradient>
                  <path
                     fill-rule="evenodd"
                     clip-rule="evenodd"
                     fill="url(#SVGID_17_)"
                     d="m 183.6,980 c 6.2,-102 -13.2,-163.1 -25.9,-177.5 2.2,-77.6 0.1,-160 5.6,-183.6 17.1,-11.1 30.1,54.5 29.3,122.3 33.6,4.6 36.3,132.8 42.9,238.8 z"
                     id="path35822"
                     style="fill:url(#SVGID_17_)" />
                </g>
              </g>
              <g
                 id="g35842"
                 style="fill:#f4d7d7"
                 inkscape:export-xdpi="96"
                 inkscape:export-ydpi="96">
                <path
                   fill-rule="evenodd"
                   clip-rule="evenodd"
                   fill="#ffffff"
                   d="m 267,633 h 331.5 c -12.6,-13 -41.6,-22 -70.4,-20.5 37.7,-62.4 -40.9,-97.9 -64.8,-45.4 -19.7,-28.9 -74.3,-11.9 -66.7,25.9 -37.1,-49.3 -105.2,-15.1 -87,26 -16.9,0 -30.7,6 -42.6,14 z"
                   id="path35828"
                   style="fill:#f4d7d7" />
                <path
                   fill-rule="evenodd"
                   clip-rule="evenodd"
                   fill="#ffffff"
                   d="m 955.9,432 h 206.2 c -7.8,-7 -21.5,-13.9 -39.4,-12.9 28.3,-34.9 -16.9,-58.1 -35.5,-31.5 -11.1,-56.2 -89.5,-32.7 -77.3,21.2 -11.5,-19.8 -38.9,-11.2 -27.5,14.4 -10.5,0 -19.1,3.8 -26.5,8.8 z"
                   id="path35830"
                   style="fill:#f4d7d7" />
                <path
                   fill-rule="evenodd"
                   clip-rule="evenodd"
                   fill="#ffffff"
                   d="M 1128.2,484 H 1233 c -4.8,-5 -13.1,-8.5 -24.1,-8 16.7,-47.4 -46.5,-56.7 -43.7,-7.8 -7,-12.1 -27.7,-5.2 -20.8,10.4 -6.4,0 -11.7,2.4 -16.2,5.4 z"
                   id="path35832"
                   style="fill:#f4d7d7" />
                <path
                   fill-rule="evenodd"
                   clip-rule="evenodd"
                   fill="#ffffff"
                   d="m 486.2,211 h 104.7 c -4.8,-5 -13.1,-8.8 -24,-8.2 16.7,-47.4 -46.5,-56.8 -43.7,-8 -7,-12.1 -27.7,-5 -20.8,10.6 -6.5,0 -11.7,1.6 -16.2,5.6 z"
                   id="path35834"
                   style="fill:#f4d7d7" />
                <path
                   fill-rule="evenodd"
                   clip-rule="evenodd"
                   fill="#ffffff"
                   d="M 481.1,236 H 360.2 c 4.6,-5 15.2,-8.4 25.7,-7.9 -13.8,-22.8 14.9,-35.9 23.6,-16.8 7.2,-10.5 27.1,-4.4 24.3,9.4 13.5,-18 38.4,-5.1 31.7,9.8 6.2,0 11.2,2.5 15.6,5.5 z"
                   id="path35836"
                   style="fill:#f4d7d7" />
                <path
                   fill-rule="evenodd"
                   clip-rule="evenodd"
                   fill="#ffffff"
                   d="m 1372.1,903 h -323 c 12.2,-12 33.6,-21.9 61.7,-20.4 -44.3,-54.6 26.5,-91.1 55.5,-49.3 17.4,-88 140.2,-51.2 121.2,33.2 18.1,-31 60.9,-17.3 43.1,22.7 16.5,-0.1 30,4.8 41.5,13.8 z"
                   id="path35838"
                   style="fill:#f4d7d7" />
                <path
                   fill-rule="evenodd"
                   clip-rule="evenodd"
                   fill="#ffffff"
                   d="m 144.9,506 h 104.7 c -4.8,-5 -13.1,-8.6 -24.1,-8 16.7,-47.4 -46.5,-56.7 -43.7,-7.8 -7,-12.1 -27.7,-5.2 -20.8,10.4 -6.3,0 -11.5,1.4 -16.1,5.4 z"
                   id="path35840"
                   style="fill:#f4d7d7" />
              </g>
            </g>
          </g>
        </g>
      </g>
    </g>
  </g>
</svg>
