<?xml version="1.0" encoding="utf-8"?>
<!-- Generator: Adobe Illustrator 17.0.0, SVG Export Plug-In . SVG Version: 6.00 Build 0)  -->
<!DOCTYPE svg PUBLIC "-//W3C//DTD SVG 1.1//EN" "http://www.w3.org/Graphics/SVG/1.1/DTD/svg11.dtd">
<svg version="1.1" xmlns="http://www.w3.org/2000/svg" xmlns:xlink="http://www.w3.org/1999/xlink" x="0px" y="0px" width="1400px"
	 height="980px" viewBox="0 0 1400 980" enable-background="new 0 0 1400 980" xml:space="preserve">
<g id="Layer_1">
	<linearGradient id="SVGID_1_" gradientUnits="userSpaceOnUse" x1="-37.1762" y1="915.6089" x2="1437.1763" y2="64.3911">
		<stop  offset="0" style="stop-color:#FFAB57"/>
		<stop  offset="1" style="stop-color:#FF99D1"/>
	</linearGradient>
	<rect fill-rule="evenodd" clip-rule="evenodd" fill="url(#SVGID_1_)" width="1400" height="980"/>
</g>
<g id="Layer_2">
	<g>
		<rect x="1013" y="65" fill-rule="evenodd" clip-rule="evenodd" fill="#FFFFFF" width="4" height="141"/>
		<linearGradient id="SVGID_2_" gradientUnits="userSpaceOnUse" x1="920.0447" y1="129.3763" x2="1016.2737" y2="73.8184">
			<stop  offset="0" style="stop-color:#FF8F73"/>
			<stop  offset="1" style="stop-color:#EF7FC1"/>
		</linearGradient>
		<path fill-rule="evenodd" clip-rule="evenodd" fill="url(#SVGID_2_)" d="M1013,68.2c-28.4,0-54.2-15.8-85.3,0
			c0,18.5-1.9,36.7-11.8,54.1c60.8-21.2,64.7,6.7,97.1,10.1C1009.2,110.1,1008.9,88.7,1013,68.2L1013,68.2z"/>
	</g>
	<g>
		<g>
			<linearGradient id="SVGID_3_" gradientUnits="userSpaceOnUse" x1="597.3167" y1="428" x2="597.3167" y2="252.0937">
				<stop  offset="0" style="stop-color:#BF7245"/>
				<stop  offset="1" style="stop-color:#BDD18A"/>
			</linearGradient>
			<path fill-rule="evenodd" clip-rule="evenodd" fill="url(#SVGID_3_)" d="M563.5,428c3-49,8.2-85.3,18.4-89.2
				c1.1-37.7,1.9-78.2,14-86.1c8.3-5.4,14.6,26.3,14.2,59.3c16.3,2.2,17.7,66,20.9,116H563.5z"/>
			<linearGradient id="SVGID_4_" gradientUnits="userSpaceOnUse" x1="612.1723" y1="428" x2="612.1723" y2="252.0937">
				<stop  offset="0" style="stop-color:#DB8553"/>
				<stop  offset="1" style="stop-color:#DFFFAB"/>
			</linearGradient>
			<path fill-rule="evenodd" clip-rule="evenodd" fill="url(#SVGID_4_)" d="M605.9,428c3-49-6.4-79.1-12.6-86.1
				c1-37.7,0.1-77.7,2.7-89.2c8.3-5.4,14.6,26.3,14.2,59.3c16.3,2.2,17.7,66,20.9,116H605.9z"/>
		</g>
		<linearGradient id="SVGID_5_" gradientUnits="userSpaceOnUse" x1="701" y1="980" x2="701" y2="179.8736">
			<stop  offset="0" style="stop-color:#BF7245"/>
			<stop  offset="1" style="stop-color:#FFB2DE"/>
		</linearGradient>
		<path fill-rule="evenodd" clip-rule="evenodd" fill="url(#SVGID_5_)" d="M508.8,423.9l484-202.9h31.1l59.1-41.1v406.3L508.8,423.9
			z M163,836.8V980h178.2L163,836.8z M508.8,837.1L1239,630.2V980h-95.7L508.8,837.1z M420,423.6v346.8l543.5-140.2L420,423.6z
			 M923,221v11.4l31.7-11.4H923z"/>
		<g>
			<linearGradient id="SVGID_6_" gradientUnits="userSpaceOnUse" x1="368.7253" y1="980" x2="368.7253" y2="436.8351">
				<stop  offset="0" style="stop-color:#BF7245"/>
				<stop  offset="1" style="stop-color:#BDD18A"/>
			</linearGradient>
			<path fill-rule="evenodd" clip-rule="evenodd" fill="url(#SVGID_6_)" d="M264.6,980c9.3-153,25.4-263.7,56.9-275.7
				c3.2-116.3,5.7-241.4,43-265.6c25.7-16.6,45.1,81.6,43.9,183.3c50.4,6.9,54.5,201,64.4,358H264.6z"/>
			<linearGradient id="SVGID_7_" gradientUnits="userSpaceOnUse" x1="414.552" y1="980" x2="414.552" y2="436.8351">
				<stop  offset="0" style="stop-color:#DB8553"/>
				<stop  offset="1" style="stop-color:#DFFFAB"/>
			</linearGradient>
			<path fill-rule="evenodd" clip-rule="evenodd" fill="url(#SVGID_7_)" d="M395.1,980c9.3-153-19.8-244.4-38.9-266.1
				c3.2-116.3,0.2-239.9,8.3-275.2c25.7-16.6,45.1,81.6,43.9,183.3c50.4,6.9,54.5,201,64.4,358H395.1z"/>
		</g>
		<g>
			<linearGradient id="SVGID_8_" gradientUnits="userSpaceOnUse" x1="961.4812" y1="572" x2="961.4812" y2="363.5938">
				<stop  offset="0" style="stop-color:#BF7245"/>
				<stop  offset="1" style="stop-color:#BDD18A"/>
			</linearGradient>
			<path fill-rule="evenodd" clip-rule="evenodd" fill="url(#SVGID_8_)" d="M921.6,572c3.6-58,9.7-101.3,21.8-105.8
				c1.3-44.5,2.2-92.6,16.5-101.9c9.9-6.4,17.3,31.5,16.8,70.4c19.3,2.6,20.9,76.3,24.6,137.3H921.6z"/>
			<linearGradient id="SVGID_9_" gradientUnits="userSpaceOnUse" x1="979.0315" y1="572" x2="979.0315" y2="363.5938">
				<stop  offset="0" style="stop-color:#DB8553"/>
				<stop  offset="1" style="stop-color:#DFFFAB"/>
			</linearGradient>
			<path fill-rule="evenodd" clip-rule="evenodd" fill="url(#SVGID_9_)" d="M971.6,572c3.6-58-7.6-93.9-14.9-102.2
				c1.3-44.5,0.1-92,3.2-105.5c9.9-6.4,17.3,31.5,16.8,70.4c19.3,2.6,20.9,76.3,24.6,137.3H971.6z"/>
		</g>
		<g>
			<linearGradient id="SVGID_10_" gradientUnits="userSpaceOnUse" x1="653.0472" y1="980" x2="653.0472" y2="837">
				<stop  offset="0" style="stop-color:#FFDBA6"/>
				<stop  offset="1" style="stop-color:#FFFBD4"/>
			</linearGradient>
			<polygon fill-rule="evenodd" clip-rule="evenodd" fill="url(#SVGID_10_)" points="341.2,980 162.8,837 509.2,837 1143.3,980 			
				"/>
			<linearGradient id="SVGID_11_" gradientUnits="userSpaceOnUse" x1="701.2712" y1="837" x2="701.2712" y2="631">
				<stop  offset="0" style="stop-color:#FFDBA6"/>
				<stop  offset="1" style="stop-color:#FFFBD4"/>
			</linearGradient>
			<polygon fill-rule="evenodd" clip-rule="evenodd" fill="url(#SVGID_11_)" points="509.2,837 1239.8,631 963.7,631 162.8,837 			
				"/>
			<linearGradient id="SVGID_12_" gradientUnits="userSpaceOnUse" x1="829.9851" y1="631" x2="829.9851" y2="425">
				<stop  offset="0" style="stop-color:#FFDBA6"/>
				<stop  offset="1" style="stop-color:#FFFBD4"/>
			</linearGradient>
			<polygon fill-rule="evenodd" clip-rule="evenodd" fill="url(#SVGID_12_)" points="509.2,425 1239.8,631 963.7,631 420.2,425 			
				"/>
			<linearGradient id="SVGID_13_" gradientUnits="userSpaceOnUse" x1="751.9973" y1="425" x2="751.9973" y2="180.4342">
				<stop  offset="0" style="stop-color:#FFDBA6"/>
				<stop  offset="1" style="stop-color:#FFFBD4"/>
			</linearGradient>
			<polygon fill-rule="evenodd" clip-rule="evenodd" fill="url(#SVGID_13_)" points="509.2,425 992.8,221 1023.9,221 1083.8,180.4 
				923.2,221 954.7,221 420.2,425 			"/>
		</g>
		<g>
			<linearGradient id="SVGID_14_" gradientUnits="userSpaceOnUse" x1="1270.7201" y1="980" x2="1270.7201" y2="483.8246">
				<stop  offset="0" style="stop-color:#BF7245"/>
				<stop  offset="1" style="stop-color:#BDD18A"/>
			</linearGradient>
			<path fill-rule="evenodd" clip-rule="evenodd" fill="url(#SVGID_14_)" d="M1175.6,980c8.5-140,23.2-240.9,52-251.8
				c3-106.2,5.2-220.5,39.3-242.6c23.4-15.2,41.2,74.6,40.1,167.5c46,6.3,49.8,183,58.8,327H1175.6z"/>
			<linearGradient id="SVGID_15_" gradientUnits="userSpaceOnUse" x1="1312.5748" y1="980" x2="1312.5748" y2="483.8246">
				<stop  offset="0" style="stop-color:#DB8553"/>
				<stop  offset="1" style="stop-color:#DFFFAB"/>
			</linearGradient>
			<path fill-rule="evenodd" clip-rule="evenodd" fill="url(#SVGID_15_)" d="M1294.8,980c8.5-140-18.1-223.3-35.5-243.1
				c3-106.2,0.2-219.1,7.6-251.4c23.4-15.2,41.2,74.6,40.1,167.5c46,6.3,49.8,183,58.8,327H1294.8z"/>
		</g>
		<g>
			<linearGradient id="SVGID_16_" gradientUnits="userSpaceOnUse" x1="165.9956" y1="980" x2="165.9956" y2="617.6508">
				<stop  offset="0" style="stop-color:#BF7245"/>
				<stop  offset="1" style="stop-color:#BDD18A"/>
			</linearGradient>
			<path fill-rule="evenodd" clip-rule="evenodd" fill="url(#SVGID_16_)" d="M96.5,980c6.2-102,16.9-176,38-183.9
				c2.2-77.6,3.8-161.1,28.7-177.2c17.1-11.1,30.1,54.5,29.3,122.3c33.6,4.6,36.3,132.8,42.9,238.8H96.5z"/>
			<linearGradient id="SVGID_17_" gradientUnits="userSpaceOnUse" x1="196.5468" y1="980" x2="196.5468" y2="617.6508">
				<stop  offset="0" style="stop-color:#DB8553"/>
				<stop  offset="1" style="stop-color:#DFFFAB"/>
			</linearGradient>
			<path fill-rule="evenodd" clip-rule="evenodd" fill="url(#SVGID_17_)" d="M183.6,980c6.2-102-13.2-163.1-25.9-177.5
				c2.2-77.6,0.1-160,5.6-183.6c17.1-11.1,30.1,54.5,29.3,122.3c33.6,4.6,36.3,132.8,42.9,238.8H183.6z"/>
		</g>
	</g>
	<g>
		<path fill-rule="evenodd" clip-rule="evenodd" fill="#FFFFFF" d="M267,633h331.5c-12.6-13-41.6-22-70.4-20.5
			c37.7-62.4-40.9-97.9-64.8-45.4c-19.7-28.9-74.3-11.9-66.7,25.9c-37.1-49.3-105.2-15.1-87,26C292.7,619,278.9,625,267,633L267,633
			z"/>
		<path fill-rule="evenodd" clip-rule="evenodd" fill="#FFFFFF" d="M955.9,432h206.2c-7.8-7-21.5-13.9-39.4-12.9
			c28.3-34.9-16.9-58.1-35.5-31.5c-11.1-56.2-89.5-32.7-77.3,21.2c-11.5-19.8-38.9-11.2-27.5,14.4C971.9,423.2,963.3,427,955.9,432
			L955.9,432z"/>
		<path fill-rule="evenodd" clip-rule="evenodd" fill="#FFFFFF" d="M1128.2,484H1233c-4.8-5-13.1-8.5-24.1-8
			c16.7-47.4-46.5-56.7-43.7-7.8c-7-12.1-27.7-5.2-20.8,10.4C1138,478.6,1132.7,481,1128.2,484L1128.2,484z"/>
		<path fill-rule="evenodd" clip-rule="evenodd" fill="#FFFFFF" d="M486.2,211h104.7c-4.8-5-13.1-8.8-24-8.2
			c16.7-47.4-46.5-56.8-43.7-8c-7-12.1-27.7-5-20.8,10.6C495.9,205.4,490.7,207,486.2,211L486.2,211z"/>
		<path fill-rule="evenodd" clip-rule="evenodd" fill="#FFFFFF" d="M481.1,236H360.2c4.6-5,15.2-8.4,25.7-7.9
			c-13.8-22.8,14.9-35.9,23.6-16.8c7.2-10.5,27.1-4.4,24.3,9.4c13.5-18,38.4-5.1,31.7,9.8C471.7,230.5,476.7,233,481.1,236
			L481.1,236z"/>
		<path fill-rule="evenodd" clip-rule="evenodd" fill="#FFFFFF" d="M1372.1,903h-323c12.2-12,33.6-21.9,61.7-20.4
			c-44.3-54.6,26.5-91.1,55.5-49.3c17.4-88,140.2-51.2,121.2,33.2c18.1-31,60.9-17.3,43.1,22.7C1347.1,889.1,1360.6,894,1372.1,903
			L1372.1,903z"/>
		<path fill-rule="evenodd" clip-rule="evenodd" fill="#FFFFFF" d="M144.9,506h104.7c-4.8-5-13.1-8.6-24.1-8
			c16.7-47.4-46.5-56.7-43.7-7.8c-7-12.1-27.7-5.2-20.8,10.4C154.7,500.6,149.5,502,144.9,506L144.9,506z"/>
	</g>
</g>
<g id="Layer_3">
	<g>
		<text transform="matrix(1 0 0 1 35.6103 142.0389)"><tspan x="0" y="0" fill="#FCFCFC" font-family="'Montserrat-Bold'" font-size="80">G</tspan><tspan x="60" y="0" fill="#FCFCFC" font-family="'Montserrat-Bold'" font-size="80" letter-spacing="-1">O</tspan><tspan x="124.4" y="0" fill="#FCFCFC" font-family="'Montserrat-Bold'" font-size="80">AL</tspan></text>
		<text transform="matrix(1 0 0 1 35.6103 78.4934)"><tspan x="0" y="0" fill="#FCFCFC" font-family="'Montserrat-Bold'" font-size="60">C</tspan><tspan x="43" y="0" fill="#FCFCFC" font-family="'Montserrat-Bold'" font-size="60">ORPOR</tspan><tspan x="270" y="0" fill="#FCFCFC" font-family="'Montserrat-Bold'" font-size="60" letter-spacing="-3">A</tspan><tspan x="311.6" y="0" fill="#FCFCFC" font-family="'Montserrat-Bold'" font-size="60">TE</tspan></text>
	</g>
</g>
</svg>
